<svg xmlns="http://www.w3.org/2000/svg" version="1.1" xmlns:xlink="http://www.w3.org/1999/xlink" xmlns:svgjs="http://svgjs.dev/svgjs" width="100%" height="100%" viewBox="0 0 1000 600"><rect width="1000" height="600" x="0" y="0" fill="#2b3a42"/><g><rect width="333.3333333333333" height="333.3333333333333" rx="13.333333333333334" ry="13.333333333333334" y="372.46244069328407" fill="#ff" transform="matrix(0.35689792963185724,0,0,0.3568979296318573,0,107.58594014667037)" x="350.2402038574219"/><path d="M436.5225490451892 614.1291222415718L436.5225490451892 614.1291222415718Q420.10624071645367 614.1291222415718 405.0360111455111 608.7740697920914Q389.9657815745685 603.3897547609196 381.7429961193552 594.9621312338683L381.7429961193552 594.9621312338683L387.85887569280567 582.9644727404965Q395.6719850043429 590.5434813985045 408.84014676536066 595.6936957761469Q422.00830852637847 600.8731727354806 436.5225490451892 600.8731727354806L436.5225490451892 600.8731727354806Q450.45153793017687 600.8731727354806 459.1717872741398 597.3909255142337Q467.9212991997938 593.9086782929868 472.04732321824605 587.9976367913742Q476.14408465500713 582.115857871453 476.14408465500713 574.9465253571212L476.14408465500713 574.9465253571212Q476.14408465500713 566.3140637582317 471.1987083492027 561.0467990538245Q466.25333204339825 555.7795343494174 458.235384660023 552.7069632718467Q450.2174372766477 549.663654775967 440.5315227368768 547.3519108223661Q430.84560819710595 545.0401668687653 421.1596936573351 542.4065345165616Q411.4737791175642 539.7729021643581 403.33878140742434 535.3249897473032Q395.2330462789756 530.9063399119395 390.2876699731712 523.6492196525342Q385.34229366736673 516.3628368114375 385.34229366736673 504.5700163899039L385.34229366736673 504.5700163899039Q385.34229366736673 493.62581083741355 391.13628484221454 484.4666227680834Q396.9302760170624 475.2781721170621 408.9279345104341 469.71828159574346Q420.95485558549706 464.1291284927337 439.6829078678335 464.1291284927337L439.6829078678335 464.1291284927337Q452.1195050865725 464.1291284927337 464.35126423347344 467.61137571398064Q476.55376079868324 471.0643603535364 485.4203230511019 477.1802399269869L485.4203230511019 477.1802399269869L480.15305834669476 489.6168371457259Q470.671981878762 483.2961195004374 460.0204021431831 480.34059874963117Q449.39808498929546 477.38507799882495 439.4780697959954 477.38507799882495L439.4780697959954 477.38507799882495Q426.2221202899042 477.38507799882495 417.56039610932356 480.9843755468365Q408.9279345104341 484.5544105131569 404.831173073673 490.55323975984277Q400.7051490552208 496.58133158821977 400.7051490552208 504.1603402462278L400.7051490552208 504.1603402462278Q400.7051490552208 512.7928018451172 405.6797879427164 518.0600665495243Q410.6251642485209 523.3273312539314 418.7308993769696 526.2828520047376Q426.8366345054183 529.2383727555439 436.5225490451892 531.5501167091447Q446.2377261666512 533.8618606627456 455.80659037965745 536.6125433417138Q465.40471717435486 539.3339634389908 473.51045230280357 543.6648255292812Q481.6161874312523 547.9664250378803 486.56156373705676 555.1357575522122Q491.5362026245524 562.3050900665442 491.5362026245524 573.8930724162398L491.5362026245524 573.8930724162398Q491.5362026245524 584.632439896892 485.62516112293997 593.7916279662221Q479.71411962132754 602.9800786172435 467.59941080119114 608.539969138562Q455.4847019810548 614.1291222415718 436.5225490451892 614.1291222415718ZM518.077364218426 612.8708312288524L501.8366313798374 612.8708312288524L569.2576195962484 465.3874195054532L584.6497375657937 465.3874195054532L652.0707257822048 612.8708312288524L635.625154871778 612.8708312288524L573.7055320133034 474.4588198297099L580.0262496585918 474.4588198297099L518.077364218426 612.8708312288524ZM623.4226583065683 573.4833962725637L528.4070555554022 573.4833962725637L533.030543462604 560.8419609819866L618.7699078176754 560.8419609819866L623.4226583065683 573.4833962725637Z " fill="#2b3a42" transform="matrix(0.35689792963185724,0,0,0.3568979296318573,0,107.58594014667037)"/><path d="M808.1342861907832 583.5168821077867L808.1342861907832 583.5168821077867Q795.7792723534744 583.5168821077867 784.4373256044298 579.486636952301Q773.0953788553853 575.4343685992443 766.9068603379455 569.0916876988077L766.9068603379455 569.0916876988077L771.5097086302762 560.062176694714Q777.3899023817225 565.7661848655928 787.3003412886547 569.6422676380818Q797.2107801955868 573.5403736081417 808.1342861907832 573.5403736081417L808.1342861907832 573.5403736081417Q818.6173282345603 573.5403736081417 825.1802411107064 570.9196130971974Q831.7651771844236 568.2988525862532 834.870448041929 563.8501666769191Q837.9536957018635 559.4235039651562 837.9536957018635 554.0278205602708L837.9536957018635 554.0278205602708Q837.9536957018635 547.5309772768376 834.2317753123712 543.5668017140647Q830.5098549228788 539.6026261512918 824.4754987884357 537.290190406341Q818.4411426539926 534.9997778589611 811.1514642580048 533.2599452508553Q803.8617858620169 531.5201126427494 796.572107466029 529.538024861363Q789.2824290700412 527.5559370799766 783.1599801453142 524.2084110491905Q777.0595544181582 520.8829082159757 773.3376340286659 515.4211552183774Q769.6157136391736 509.93737902320834 769.6157136391736 501.06203040211136L769.6157136391736 501.06203040211136Q769.6157136391736 492.8253545105722 773.9763067582237 485.9320936708616Q778.3368998772739 479.01680963358007 787.3664108813675 474.8324020950976Q796.4179450830322 470.62597135904423 810.5127915284469 470.62597135904423L810.5127915284469 470.62597135904423Q819.872650496105 470.62597135904423 829.0783470807664 473.2467318699885Q838.2620204678569 475.8454691833618 844.935049331858 480.44831747569253L844.935049331858 480.44831747569253L840.9708737690851 489.80817644335065Q833.8353577560938 485.0511657680232 825.8189138402643 482.8268228133562Q817.8244931220057 480.6024798586892 810.3586291454501 480.6024798586892L810.3586291454501 480.6024798586892Q800.3821206458051 480.6024798586892 793.8632541648009 483.31133315991735Q787.3664108813675 485.9981632635745 784.2831632214331 490.51291876562135Q781.1778923639278 495.0496974652392 781.1778923639278 500.7537056361179L781.1778923639278 500.7537056361179Q781.1778923639278 507.2505489195512 784.921835950991 511.2147244823241Q788.6437563404834 515.178900045097 794.7441820676393 517.403242999764Q800.8446077947954 519.627585954431 808.1342861907832 521.3674185625368Q815.445987784342 523.1072511706426 822.6475733900461 525.1774317423128Q829.871182193321 527.2255891164123 835.971607920477 530.4850223569143Q842.072033647633 533.7224323998455 845.7939540371253 539.1181158047307Q849.5378976241886 544.5137992096161 849.5378976241886 553.2349854477163L849.5378976241886 553.2349854477163Q849.5378976241886 561.3174989562588 845.0892117148546 568.2107597959694Q840.6405258055206 575.126043833251 831.522922011143 579.3104513717334Q822.4053182167654 583.5168821077867 808.1342861907832 583.5168821077867ZM899.0019993685654 583.36271972479L899.0019993685654 583.36271972479Q887.2636350632436 583.36271972479 880.920954162807 577.0200388243535Q874.5782732623704 570.6773579239169 874.5782732623704 559.0931560015918L874.5782732623704 559.0931560015918L874.5782732623704 480.9328278222536L885.8321272211311 480.9328278222536L885.8321272211311 558.4765064696048Q885.8321272211311 565.7661848655928 889.5760708081945 569.7303604283655Q893.2979911976868 573.6945359911384 900.2793448276811 573.6945359911384L900.2793448276811 573.6945359911384Q907.7231856066658 573.6945359911384 912.6343586649899 569.4000124648012L912.6343586649899 569.4000124648012L916.5985342277627 577.5045491709146Q913.2730313945477 580.4997040405652 908.6041135095041 581.9312118826775Q903.9131724268896 583.36271972479 899.0019993685654 583.36271972479ZM911.2028508228775 508.6820567616636L859.6685685068303 508.6820567616636L859.6685685068303 499.3221977940055L911.2028508228775 499.3221977940055L911.2028508228775 508.6820567616636ZM972.4273400701471 583.36271972479L972.4273400701471 583.36271972479Q959.4116303057097 583.36271972479 949.5892841890613 577.9009667271919Q939.744914874842 572.4171905320228 934.1950690869601 562.8370995886551Q928.645223299078 553.2349854477163 928.645223299078 540.8579484128365L928.645223299078 540.8579484128365Q928.645223299078 528.5029345755279 933.9748371112504 518.988913224873Q939.2824277258519 509.4748918742182 948.5541939032262 503.9911156790491Q957.8259600806005 498.5293626814509 969.4101620029255 498.5293626814509L969.4101620029255 498.5293626814509Q981.1485263082475 498.5293626814509 990.266130102625 503.83695329605234Q999.3837338970026 509.1445439106538 1004.6032317213202 518.7466580515925Q1009.8447527432087 528.3487721925312 1009.8447527432087 540.8579484128365L1009.8447527432087 540.8579484128365Q1009.8447527432087 541.6507835253913 1009.7566599529249 542.5317114282295Q1009.690590360212 543.412639331068 1009.690590360212 544.3596368266194L1009.690590360212 544.3596368266194L937.2122471541816 544.3596368266194L937.2122471541816 535.9467753545125L1003.6562342257689 535.9467753545125L999.2075483164349 539.2722781877276Q999.2075483164349 530.2427671836338 995.3314655439459 523.1953439609265Q991.4553827714569 516.1258975406481 984.7823539074559 512.1617219778753Q978.1313482410259 508.19754641510247 969.4101620029255 508.19754641510247L969.4101620029255 508.19754641510247Q960.843138147822 508.19754641510247 954.0159469008244 512.1617219778753Q947.2107788513975 516.1258975406481 943.4007656716215 523.2614135536394Q939.5907524918454 530.3969295666304 939.5907524918454 539.6026261512918L939.5907524918454 539.6026261512918L939.5907524918454 541.3424587593977Q939.5907524918454 550.8564801100526 943.7971832278987 558.0800889133276Q948.0036139639521 565.2816745190316 955.5355475332206 569.3339428720883Q963.0674811024891 573.3641880275741 972.7356648361406 573.3641880275741L972.7356648361406 573.3641880275741Q980.3556911956929 573.3641880275741 986.918604071839 570.6773579239169Q993.5035401455561 567.9905278202597 998.2605508208836 562.4406820323777L998.2605508208836 562.4406820323777L1004.6032317213202 569.7303604283655Q999.0533859334382 576.3813660947957 990.7286172516151 579.8830545085783Q982.4038485697922 583.36271972479 972.4273400701471 583.36271972479ZM1045.9848199571547 582.5698846122355L1034.730965998394 582.5698846122355L1034.730965998394 488.8611789477993Q1034.730965998394 477.76148737203533 1041.2278092818271 470.93429612503763Q1047.7466757628315 464.1291280756109 1059.9475272171435 464.1291280756109L1059.9475272171435 464.1291280756109Q1064.7045378924709 464.1291280756109 1069.1532238018049 465.3844503371556Q1073.5798865135678 466.66179579627135 1076.5970645807895 469.3486258999285L1076.5970645807895 469.3486258999285L1072.7870514010133 477.76148737203533Q1070.4085460633496 475.69130680036506 1067.2372056131312 474.65621651452994Q1064.065865162913 473.6431494262657 1060.4320375637046 473.6431494262657L1060.4320375637046 473.6431494262657Q1053.2965215507134 473.6431494262657 1049.4865083709374 477.6073249890386Q1045.6764951911612 481.5715005518115 1045.6764951911612 489.32366609678945L1045.6764951911612 489.32366609678945L1045.6764951911612 502.00902789766263L1045.9848199571547 507.2505489195512L1045.9848199571547 582.5698846122355ZM1071.355543558901 508.6820567616636L1019.8212612428538 508.6820567616636L1019.8212612428538 499.3221977940055L1071.355543558901 499.3221977940055L1071.355543558901 508.6820567616636ZM1149.53789493581 582.5698846122355L1138.7465281260395 582.5698846122355L1138.7465281260395 564.1805146404836L1138.2840409770492 561.1633365732621L1138.2840409770492 530.3969295666304Q1138.2840409770492 519.7817483374276 1132.33777763289 514.0777401665489Q1126.3915142887308 508.3517087980992 1114.6531499834089 508.3517087980992L1114.6531499834089 508.3517087980992Q1106.5706364748664 508.3517087980992 1099.2809580788785 511.06056209932734Q1091.9692564853196 513.7473922029844 1086.903921043999 518.1960781123184L1086.903921043999 518.1960781123184L1081.838585602678 509.7832166402116Q1088.1812665031146 504.3875332353264 1097.0566151242115 501.45844795838866Q1105.9319637453086 498.5293626814509 1115.754309861957 498.5293626814509L1115.754309861957 498.5293626814509Q1131.9413600766127 498.5293626814509 1140.7286159074258 506.54580659728043Q1149.53789493581 514.5402273155391 1149.53789493581 530.8814399131916L1149.53789493581 530.8814399131916L1149.53789493581 582.5698846122355ZM1110.0503016910782 583.36271972479L1110.0503016910782 583.36271972479Q1100.69044272342 583.36271972479 1093.7971818837095 580.2794720648557Q1086.903921043999 577.1742012073502 1083.2480702472194 571.7124482097521Q1079.614242648011 566.2286720145829 1079.614242648011 559.0931560015918L1079.614242648011 559.0931560015918Q1079.614242648011 552.5963127181585 1082.6974903079454 547.2887221035571Q1085.8027611654509 541.9811314889556 1092.8501843881581 538.7216982484535Q1099.8976076108654 535.4842882055223 1111.790134299184 535.4842882055223L1111.790134299184 535.4842882055223L1140.5083839317163 535.4842882055223L1140.5083839317163 543.8751264800583L1112.1204822627483 543.8751264800583Q1100.0737931914332 543.8751264800583 1095.3828521088185 548.1696500063954Q1090.713934223775 552.4421503351618 1090.713934223775 558.7848312355984L1090.713934223775 558.7848312355984Q1090.713934223775 565.9203472485895 1096.263780011657 570.1928475773558Q1101.813625799539 574.487371103693 1111.790134299184 574.487371103693L1111.790134299184 574.487371103693Q1121.304155649839 574.487371103693 1128.2194396871205 570.1267779846429Q1135.1127005268308 565.7661848655928 1138.2840409770492 557.5074857764826L1138.2840409770492 557.5074857764826L1140.8167086977096 565.2816745190316Q1137.6453682474914 573.5403736081417 1129.8051099122295 578.4515466664659Q1121.9428283793968 583.36271972479 1110.0503016910782 583.36271972479ZM1222.6328876738273 498.5293626814509L1222.6328876738273 498.5293626814509Q1232.7855817540399 498.5293626814509 1240.4716777063052 502.40544545393993Q1248.1577736585702 506.30355142399986 1252.5183667776205 514.2319025495456Q1256.8789598966705 522.1602536750913 1256.8789598966705 534.2069427464066L1256.8789598966705 534.2069427464066L1256.8789598966705 582.5698846122355L1245.62510593791 582.5698846122355L1245.62510593791 535.3081026249547Q1245.62510593791 522.1602536750913 1239.0401698641926 515.4211552183774Q1232.4772569880465 508.6820567616636 1220.584730299728 508.6820567616636L1220.584730299728 508.6820567616636Q1211.68735848106 508.6820567616636 1205.124445604914 512.2498147681592Q1198.5395095311967 515.8175727746548 1194.9717515247012 522.5566712313687Q1191.4039935182054 529.2957696880825 1191.4039935182054 538.8097910387373L1191.4039935182054 538.8097910387373L1191.4039935182054 582.5698846122355L1180.1501395594448 582.5698846122355L1180.1501395594448 499.3221977940055L1190.9194831716445 499.3221977940055L1190.9194831716445 522.1602536750913L1189.1796505635384 517.865730148754Q1193.1438261263115 508.83621914466033 1201.8650123644118 503.6827909130556Q1210.586198602512 498.5293626814509 1222.6328876738273 498.5293626814509ZM1321.2747895941584 583.36271972479L1321.2747895941584 583.36271972479Q1309.2060773252724 583.36271972479 1299.6259863819046 577.9009667271919Q1290.0238722409658 572.4171905320228 1284.4740264530838 562.8370995886551Q1278.9241806652017 553.2349854477163 1278.9241806652017 540.8579484128365L1278.9241806652017 540.8579484128365Q1278.9241806652017 528.3487721925312 1284.4740264530838 518.8347508418763Q1290.0238722409658 509.32072949122147 1299.5378935916206 503.9250460863362Q1309.0519149422757 498.5293626814509 1321.2747895941584 498.5293626814509L1321.2747895941584 498.5293626814509Q1333.6298034314673 498.5293626814509 1343.231917572406 503.9250460863362Q1352.8120085157739 509.32072949122147 1358.2957847109428 518.8347508418763Q1363.757537708541 528.3487721925312 1363.757537708541 540.8579484128365L1363.757537708541 540.8579484128365Q1363.757537708541 553.2349854477163 1358.2957847109428 562.8370995886551Q1352.8120085157739 572.4171905320228 1343.143824782122 577.9009667271919Q1333.4756410484706 583.36271972479 1321.2747895941584 583.36271972479ZM1321.2747895941584 573.3641880275741L1321.2747895941584 573.3641880275741Q1330.3043005982522 573.3641880275741 1337.2856542282466 569.3339428720883Q1344.2670078582412 565.2816745190316 1348.2972530137267 557.9039033327599Q1352.3495213667834 550.5481553440592 1352.3495213667834 540.8579484128365L1352.3495213667834 540.8579484128365Q1352.3495213667834 531.0356022961882 1348.2972530137267 523.7459239002005Q1344.2670078582412 516.4562455042126 1337.2856542282466 512.4039771511559Q1330.3043005982522 508.3517087980992 1321.4289519771553 508.3517087980992L1321.4289519771553 508.3517087980992Q1312.5536033560584 508.3517087980992 1305.5722497260638 512.4039771511559Q1298.5908960960696 516.4562455042126 1294.4725581502998 523.7459239002005Q1290.3542202045303 531.0356022961882 1290.3542202045303 540.8579484128365L1290.3542202045303 540.8579484128365Q1290.3542202045303 550.5481553440592 1294.4725581502998 557.9039033327599Q1298.5908960960696 565.2816745190316 1305.5722497260638 569.3339428720883Q1312.5536033560584 573.3641880275741 1321.2747895941584 573.3641880275741ZM1409.1033015071482 583.36271972479L1409.1033015071482 583.36271972479Q1398.7964450439388 583.36271972479 1389.6127716568483 580.4336344478523Q1380.407075072187 577.5045491709146 1375.1875772478695 573.0558632615806L1375.1875772478695 573.0558632615806L1380.2529126891902 564.1805146404836Q1385.3182481305112 567.9905278202597 1393.2465992560567 570.7654507142007Q1401.1749503816025 573.5403736081417 1409.896136619703 573.5403736081417L1409.896136619703 573.5403736081417Q1421.7886633080213 573.5403736081417 1427.03018432991 569.7964300210784Q1432.2717053517983 566.0745096315861 1432.2717053517983 559.8859911141463L1432.2717053517983 559.8859911141463Q1432.2717053517983 555.3051660193867 1429.32059687729 552.6844055084423Q1426.391511600352 550.063644997498 1421.6345009250247 548.7202299456694Q1416.8774902496973 547.3768148938409 1411.0193196958219 546.4077942007186Q1405.1391259443756 545.4607967051674 1399.3690481807837 544.2054744436225Q1393.5769472196214 542.9281289845069 1388.8199365442938 540.4615308565594Q1384.0629258689664 538.0169559261827 1381.1338405920285 533.7224323998455Q1378.18273211752 529.4499320710793 1378.18273211752 522.314416058088L1378.18273211752 522.314416058088Q1378.18273211752 515.4872248110903 1381.9927452972963 510.113564603776Q1385.8027584770723 504.7178811988908 1393.180529663344 501.61261034138533Q1400.5583008496158 498.5293626814509 1411.1734820788186 498.5293626814509L1411.1734820788186 498.5293626814509Q1419.255995587361 498.5293626814509 1427.3385090959034 500.66561284583406Q1435.4430458020167 502.80186301021723 1440.6625436263346 506.30355142399986L1440.6625436263346 506.30355142399986L1435.75137056801 515.3330624280936Q1430.2015247801282 511.5230492483175 1423.8588438796917 509.8713094304955Q1417.5161629792551 508.19754641510247 1411.1734820788186 508.19754641510247L1411.1734820788186 508.19754641510247Q1399.9196281200577 508.19754641510247 1394.6120375054563 512.0956523851625Q1389.282423693284 515.9717351576514 1389.282423693284 522.0060912920947L1389.282423693284 522.0060912920947Q1389.282423693284 526.763101967422 1392.2335321677926 529.4499320710793Q1395.1626174447304 532.1367621747363 1399.9856977127706 533.6563628071326Q1404.830801178382 535.1539402419579 1410.6229021395445 536.1009377375092Q1416.4150031007073 537.0699584306315 1422.1850808642987 538.41337348246Q1427.9771818254612 539.7567885342886 1432.8222852910724 542.0472010816685Q1437.6453655591129 544.3596368266194 1440.5964740336215 548.5660675626727Q1443.5255593105592 552.7504751011552 1443.5255593105592 559.5776663481529L1443.5255593105592 559.5776663481529Q1443.5255593105592 566.8673447441408 1439.4732909575025 572.1749353587421Q1435.4430458020167 577.5045491709146 1427.7349266521808 580.4336344478523Q1420.0488306999155 583.36271972479 1409.1033015071482 583.36271972479ZM1502.503682405591 582.5698846122355L1490.302830951279 582.5698846122355L1541.0442781547715 471.5729688545955L1552.6064568795257 471.5729688545955L1603.3479040830182 582.5698846122355L1590.9928902457095 582.5698846122355L1544.3697809879866 478.4001601015932L1549.126791663314 478.4001601015932L1502.503682405591 582.5698846122355ZM1581.787193661048 552.9266606817229L1510.27787114814 552.9266606817229L1513.7575363643516 543.412639331068L1578.3075284448364 543.412639331068L1581.787193661048 552.9266606817229ZM1661.8635400290598 498.5293626814509L1661.8635400290598 498.5293626814509Q1672.0162341092725 498.5293626814509 1679.7023300615376 502.40544545393993Q1687.3884260138027 506.30355142399986 1691.749019132853 514.2319025495456Q1696.1096122519032 522.1602536750913 1696.1096122519032 534.2069427464066L1696.1096122519032 534.2069427464066L1696.1096122519032 582.5698846122355L1684.8557582931423 582.5698846122355L1684.8557582931423 535.3081026249547Q1684.8557582931423 522.1602536750913 1678.2708222194253 515.4211552183774Q1671.7079093432792 508.6820567616636 1659.8153826549606 508.6820567616636L1659.8153826549606 508.6820567616636Q1650.9180108362925 508.6820567616636 1644.3550979601466 512.2498147681592Q1637.7701618864292 515.8175727746548 1634.2024038799339 522.5566712313687Q1630.634645873438 529.2957696880825 1630.634645873438 538.8097910387373L1630.634645873438 538.8097910387373L1630.634645873438 582.5698846122355L1619.3807919146773 582.5698846122355L1619.3807919146773 499.3221977940055L1630.1501355268772 499.3221977940055L1630.1501355268772 522.1602536750913L1628.410302918771 517.865730148754Q1632.374478481544 508.83621914466033 1641.0956647196442 503.6827909130556Q1649.8168509577442 498.5293626814509 1661.8635400290598 498.5293626814509ZM1789.5099931503457 582.5698846122355L1778.7406495381463 582.5698846122355L1778.7406495381463 564.1805146404836L1778.2561391915851 561.1633365732621L1778.2561391915851 530.3969295666304Q1778.2561391915851 519.7817483374276 1772.3098758474257 514.0777401665489Q1766.3636125032665 508.3517087980992 1754.6252481979448 508.3517087980992L1754.6252481979448 508.3517087980992Q1746.5427346894023 508.3517087980992 1739.2530562934144 511.06056209932734Q1731.9633778974264 513.7473922029844 1726.8760192585348 518.1960781123184L1726.8760192585348 518.1960781123184L1721.8106838172139 509.7832166402116Q1728.1533647176504 504.3875332353264 1737.0287133387476 501.45844795838866Q1745.9040619598445 498.5293626814509 1755.7484312740637 498.5293626814509L1755.7484312740637 498.5293626814509Q1771.9134582911486 498.5293626814509 1780.7227373195326 506.54580659728043Q1789.5099931503457 514.5402273155391 1789.5099931503457 530.8814399131916L1789.5099931503457 530.8814399131916L1789.5099931503457 582.5698846122355ZM1750.022399905614 583.36271972479L1750.022399905614 583.36271972479Q1740.684564135527 583.36271972479 1733.7692800982452 580.2794720648557Q1726.8760192585348 577.1742012073502 1723.2421916593262 571.7124482097521Q1719.5863408625466 566.2286720145829 1719.5863408625466 559.0931560015918L1719.5863408625466 559.0931560015918Q1719.5863408625466 552.5963127181585 1722.6695885224813 547.2887221035571Q1725.7748593799868 541.9811314889556 1732.822282602694 538.7216982484535Q1739.8917290229722 535.4842882055223 1751.7842557112906 535.4842882055223L1751.7842557112906 535.4842882055223L1780.4804821462521 535.4842882055223L1780.4804821462521 543.8751264800583L1752.0925804772842 543.8751264800583Q1740.0458914059689 543.8751264800583 1735.3549503233544 548.1696500063954Q1730.6860324383108 552.4421503351618 1730.6860324383108 558.7848312355984L1730.6860324383108 558.7848312355984Q1730.6860324383108 565.9203472485895 1736.2358782261929 570.1928475773558Q1741.785724014075 574.487371103693 1751.7842557112906 574.487371103693L1751.7842557112906 574.487371103693Q1761.2982770619458 574.487371103693 1768.1915379016561 570.1267779846429Q1775.084798741367 565.7661848655928 1778.2561391915851 557.5074857764826L1778.2561391915851 557.5074857764826L1780.7888069122455 565.2816745190316Q1777.6174664620273 573.5403736081417 1769.7772081267653 578.4515466664659Q1761.9149265939325 583.36271972479 1750.022399905614 583.36271972479ZM1855.6456554559397 614.1291267314216L1855.6456554559397 614.1291267314216Q1844.2156159166113 614.1291267314216 1833.7545970704052 610.8036238982066Q1823.293578224199 607.4560978674207 1816.7967349407656 601.2896025475517L1816.7967349407656 601.2896025475517L1822.5007431116444 592.7225786924481Q1828.3589136655198 597.9420765167657 1837.0140303109072 601.0473473742712Q1845.6471237587236 604.1305950342056 1855.315307492375 604.1305950342056L1855.315307492375 604.1305950342056Q1871.1720097434666 604.1305950342056 1878.6378737200223 596.7528238479339Q1886.0817144990067 589.3970758592332 1886.0817144990067 573.8486983741351L1886.0817144990067 573.8486983741351L1886.0817144990067 553.0808230647197L1887.6673847241157 538.8097910387373L1886.566224845568 524.538759012755L1886.566224845568 499.3221977940055L1897.3355684577675 499.3221977940055L1897.3355684577675 572.4171905320228Q1897.3355684577675 593.9779009539928 1886.7864568212774 604.0645254414927Q1876.2593683823586 614.1291267314216 1855.6456554559397 614.1291267314216ZM1853.5754748842694 579.3985441620172L1853.5754748842694 579.3985441620172Q1841.682948195951 579.3985441620172 1832.1689268452958 574.2451159304125Q1822.654905494641 569.0916876988077 1817.193152497043 559.8859911141463Q1811.7093763018736 550.702317727056 1811.7093763018736 538.8097910387373L1811.7093763018736 538.8097910387373Q1811.7093763018736 526.9172643504187 1817.193152497043 517.7996605560412Q1822.654905494641 508.6820567616636 1832.1689268452958 503.5946981227718Q1841.682948195951 498.5293626814509 1853.5754748842694 498.5293626814509L1853.5754748842694 498.5293626814509Q1864.6751664600336 498.5293626814509 1873.5505150811302 503.1322109737816Q1882.4258637022274 507.73505926611233 1887.6673847241157 516.764570270206Q1892.9089057460044 525.7940812742997 1892.9089057460044 538.8097910387373L1892.9089057460044 538.8097910387373Q1892.9089057460044 551.8034776056039 1887.6673847241157 560.8550118072685Q1882.4258637022274 569.8845228113623 1873.5505150811302 574.6415334866898Q1864.6751664600336 579.3985441620172 1853.5754748842694 579.3985441620172ZM1854.6766347628175 569.4000124648012L1854.6766347628175 569.4000124648012Q1863.8823313474788 569.4000124648012 1871.01784736047 565.5239296923121Q1878.153363373461 561.6478469198232 1882.2717013192307 554.7325628825416Q1886.390039265 547.8393020428312 1886.390039265 538.8097910387373L1886.390039265 538.8097910387373Q1886.390039265 529.7582568370726 1882.2717013192307 522.9530887876458Q1878.153363373461 516.1258975406481 1871.01784736047 512.2498147681592Q1863.8823313474788 508.3517087980992 1854.6766347628175 508.3517087980992L1854.6766347628175 508.3517087980992Q1845.6471237587236 508.3517087980992 1838.4235149554486 512.2498147681592Q1831.2219293497444 516.1258975406481 1827.1696609966882 522.9530887876458Q1823.1394158412024 529.7582568370726 1823.1394158412024 538.8097910387373L1823.1394158412024 538.8097910387373Q1823.1394158412024 547.8393020428312 1827.1696609966882 554.7325628825416Q1831.2219293497444 561.6478469198232 1838.4235149554486 565.5239296923121Q1845.6471237587236 569.4000124648012 1854.6766347628175 569.4000124648012ZM1971.2233963083393 498.5293626814509L1971.2233963083393 498.5293626814509Q1981.376090388552 498.5293626814509 1989.062186340817 502.40544545393993Q1996.7703054906535 506.30355142399986 2001.1308986097035 514.2319025495456Q2005.4914917287535 522.1602536750913 2005.4914917287535 534.2069427464066L2005.4914917287535 534.2069427464066L2005.4914917287535 582.5698846122355L1994.2156145724218 582.5698846122355L1994.2156145724218 535.3081026249547Q1994.2156145724218 522.1602536750913 1987.6527016962757 515.4211552183774Q1981.0677656225587 508.6820567616636 1969.1752389342398 508.6820567616636L1969.1752389342398 508.6820567616636Q1960.2998903131431 508.6820567616636 1953.714954239426 512.2498147681592Q1947.1300181657086 515.8175727746548 1943.5622601592133 522.5566712313687Q1939.9945021527176 529.2957696880825 1939.9945021527176 538.8097910387373L1939.9945021527176 538.8097910387373L1939.9945021527176 582.5698846122355L1928.7406481939568 582.5698846122355L1928.7406481939568 499.3221977940055L1939.5099918061567 499.3221977940055L1939.5099918061567 522.1602536750913L1937.7701591980506 517.865730148754Q1941.7343347608237 508.83621914466033 1950.4555209989237 503.6827909130556Q1959.1767072370242 498.5293626814509 1971.2233963083393 498.5293626814509ZM2069.8652982286703 583.36271972479L2069.8652982286703 583.36271972479Q2057.8186091573552 583.36271972479 2048.216495016416 577.9009667271919Q2038.614380875478 572.4171905320228 2033.064535087596 562.8370995886551Q2027.5146892997138 553.2349854477163 2027.5146892997138 540.8579484128365L2027.5146892997138 540.8579484128365Q2027.5146892997138 528.3487721925312 2033.064535087596 518.8347508418763Q2038.614380875478 509.32072949122147 2048.1284022261325 503.9250460863362Q2057.642423576788 498.5293626814509 2069.8652982286703 498.5293626814509L2069.8652982286703 498.5293626814509Q2082.2203120659797 498.5293626814509 2091.822426206918 503.9250460863362Q2101.424540347857 509.32072949122147 2106.8862933454548 518.8347508418763Q2112.3480463430533 528.3487721925312 2112.3480463430533 540.8579484128365L2112.3480463430533 540.8579484128365Q2112.3480463430533 553.2349854477163 2106.8862933454548 562.8370995886551Q2101.424540347857 572.4171905320228 2091.7343334166344 577.9009667271919Q2082.0661496829825 583.36271972479 2069.8652982286703 583.36271972479ZM2069.8652982286703 573.3641880275741L2069.8652982286703 573.3641880275741Q2078.8948092327646 573.3641880275741 2085.876162862759 569.3339428720883Q2092.8575164927533 565.2816745190316 2096.8877616482387 557.9039033327599Q2100.940030001296 550.5481553440592 2100.940030001296 540.8579484128365L2100.940030001296 540.8579484128365Q2100.940030001296 531.0356022961882 2096.8877616482387 523.7459239002005Q2092.8575164927533 516.4562455042126 2085.876162862759 512.4039771511559Q2078.8948092327646 508.3517087980992 2070.0194606116675 508.3517087980992L2070.0194606116675 508.3517087980992Q2061.1441119905703 508.3517087980992 2054.162758360576 512.4039771511559Q2047.1814047305818 516.4562455042126 2043.063066784812 523.7459239002005Q2038.9447288390422 531.0356022961882 2038.9447288390422 540.8579484128365L2038.9447288390422 540.8579484128365Q2038.9447288390422 550.5481553440592 2043.063066784812 557.9039033327599Q2047.1814047305818 565.2816745190316 2054.162758360576 569.3339428720883Q2061.1441119905703 573.3641880275741 2069.8652982286703 573.3641880275741ZM2157.7158333392317 583.36271972479L2157.7158333392317 583.36271972479Q2147.4089768760223 583.36271972479 2138.203280291361 580.4336344478523Q2128.9975837066995 577.5045491709146 2123.7780858823817 573.0558632615806L2123.7780858823817 573.0558632615806L2128.8434213237024 564.1805146404836Q2133.930779962594 567.9905278202597 2141.85913108814 570.7654507142007Q2149.7874822136855 573.5403736081417 2158.5086684517855 573.5403736081417L2158.5086684517855 573.5403736081417Q2170.4011951401044 573.5403736081417 2175.6206929644222 569.7964300210784Q2180.862213986311 566.0745096315861 2180.862213986311 559.8859911141463L2180.862213986311 559.8859911141463Q2180.862213986311 555.3051660193867 2177.933128709373 552.6844055084423Q2174.9820202348646 550.063644997498 2170.2250095595373 548.7202299456694Q2165.467998884209 547.3768148938409 2159.6098283303345 546.4077942007186Q2153.751657776459 545.4607967051674 2147.9595568152963 544.2054744436225Q2142.1674558541336 542.9281289845069 2137.410445178806 540.4615308565594Q2132.653434503479 538.0169559261827 2129.7243492265407 533.7224323998455Q2126.7952639496034 529.4499320710793 2126.7952639496034 522.314416058088L2126.7952639496034 522.314416058088Q2126.7952639496034 515.4872248110903 2130.583253931808 510.113564603776Q2134.3932671115845 504.7178811988908 2141.7710382978557 501.61261034138533Q2149.148809484128 498.5293626814509 2159.7639907133307 498.5293626814509L2159.7639907133307 498.5293626814509Q2167.846504221873 498.5293626814509 2175.9510409279865 500.66561284583406Q2184.033554436529 502.80186301021723 2189.2530522608467 506.30355142399986L2189.2530522608467 506.30355142399986L2184.3418792025223 515.3330624280936Q2178.79203341464 511.5230492483175 2172.4493525142034 509.8713094304955Q2166.1066716137675 508.19754641510247 2159.7639907133307 508.19754641510247L2159.7639907133307 508.19754641510247Q2148.5101367545703 508.19754641510247 2143.202546139968 512.0956523851625Q2137.8949555253666 515.9717351576514 2137.8949555253666 522.0060912920947L2137.8949555253666 522.0060912920947Q2137.8949555253666 526.763101967422 2140.824040802305 529.4499320710793Q2143.753126079242 532.1367621747363 2148.598229544854 533.6563628071326Q2153.421309812894 535.1539402419579 2159.2134107740567 536.1009377375092Q2165.0055117352194 537.0699584306315 2170.797612696382 538.41337348246Q2176.567690459973 539.7567885342886 2181.412793925585 542.0472010816685Q2186.257897391196 544.3596368266194 2189.186982668134 548.5660675626727Q2192.1160679450713 552.7504751011552 2192.1160679450713 559.5776663481529L2192.1160679450713 559.5776663481529Q2192.1160679450713 566.8673447441408 2188.063799592014 572.1749353587421Q2184.033554436529 577.5045491709146 2176.3474584842643 580.4336344478523Q2168.639339334428 583.36271972479 2157.7158333392317 583.36271972479ZM2239.0475019687883 583.36271972479L2239.0475019687883 583.36271972479Q2227.3091376634657 583.36271972479 2220.966456763029 577.0200388243535Q2214.623775862593 570.6773579239169 2214.623775862593 559.0931560015918L2214.623775862593 559.0931560015918L2214.623775862593 480.9328278222536L2225.8996530189243 480.9328278222536L2225.8996530189243 558.4765064696048Q2225.8996530189243 565.7661848655928 2229.621573408416 569.7303604283655Q2233.343493797909 573.6945359911384 2240.3248474279035 573.6945359911384L2240.3248474279035 573.6945359911384Q2247.7686882068883 573.6945359911384 2252.679861265212 569.4000124648012L2252.679861265212 569.4000124648012L2256.6440368279855 577.5045491709146Q2253.3185339947695 580.4997040405652 2248.6496161097266 581.9312118826775Q2243.958675027112 583.36271972479 2239.0475019687883 583.36271972479ZM2251.2703766206705 508.6820567616636L2199.7360943046233 508.6820567616636L2199.7360943046233 499.3221977940055L2251.2703766206705 499.3221977940055L2251.2703766206705 508.6820567616636ZM2311.0413348282573 583.36271972479L2311.0413348282573 583.36271972479Q2298.9946457569413 583.36271972479 2289.392531616003 577.9009667271919Q2279.8124406726356 572.4171905320228 2274.2625948847535 562.8370995886551Q2268.7127490968714 553.2349854477163 2268.7127490968714 540.8579484128365L2268.7127490968714 540.8579484128365Q2268.7127490968714 528.3487721925312 2274.2625948847535 518.8347508418763Q2279.8124406726356 509.32072949122147 2289.3264620232903 503.9250460863362Q2298.840483373945 498.5293626814509 2311.0413348282573 498.5293626814509L2311.0413348282573 498.5293626814509Q2323.4183718631366 498.5293626814509 2332.998462806504 503.9250460863362Q2342.600576947443 509.32072949122147 2348.0623299450417 518.8347508418763Q2353.546106140211 528.3487721925312 2353.546106140211 540.8579484128365L2353.546106140211 540.8579484128365Q2353.546106140211 553.2349854477163 2348.0623299450417 562.8370995886551Q2342.600576947443 572.4171905320228 2332.9323932137913 577.9009667271919Q2323.2421862825686 583.36271972479 2311.0413348282573 583.36271972479ZM2311.0413348282573 573.3641880275741L2311.0413348282573 573.3641880275741Q2320.0708458323506 573.3641880275741 2327.052199462345 569.3339428720883Q2334.0335530923394 565.2816745190316 2338.0858214453965 557.9039033327599Q2342.116066600882 550.5481553440592 2342.116066600882 540.8579484128365L2342.116066600882 540.8579484128365Q2342.116066600882 531.0356022961882 2338.0858214453965 523.7459239002005Q2334.0335530923394 516.4562455042126 2327.052199462345 512.4039771511559Q2320.0708458323506 508.3517087980992 2311.1954972112535 508.3517087980992L2311.1954972112535 508.3517087980992Q2302.3201485901564 508.3517087980992 2295.338794960162 512.4039771511559Q2288.3574413301685 516.4562455042126 2284.2391033843987 523.7459239002005Q2280.120765438629 531.0356022961882 2280.120765438629 540.8579484128365L2280.120765438629 540.8579484128365Q2280.120765438629 550.5481553440592 2284.2391033843987 557.9039033327599Q2288.3574413301685 565.2816745190316 2295.338794960162 569.3339428720883Q2302.3201485901564 573.3641880275741 2311.0413348282573 573.3641880275741ZM2410.938559010133 583.36271972479L2410.938559010133 583.36271972479Q2400.32337778093 583.36271972479 2392.3950266553848 579.3985441620172Q2384.4666755298385 575.4343685992443 2380.106082410789 567.5060174736986Q2375.7454892917385 559.5776663481529 2375.7454892917385 547.6851396598342L2375.7454892917385 547.6851396598342L2375.7454892917385 499.3221977940055L2386.999343250499 499.3221977940055L2386.999343250499 546.4077942007186Q2386.999343250499 559.7318287311496 2393.5842793242164 566.4709271878635Q2400.147192200363 573.2100256445773 2412.039718888681 573.2100256445773L2412.039718888681 573.2100256445773Q2420.760905126781 573.2100256445773 2427.1916788175013 569.6422676380818Q2433.6224525082216 566.0745096315861 2437.0140249341503 559.2693415821595Q2440.427620557649 552.4421503351618 2440.427620557649 542.9281289845069L2440.427620557649 542.9281289845069L2440.427620557649 499.3221977940055L2451.6814745164093 499.3221977940055L2451.6814745164093 582.5698846122355L2440.9121309042102 582.5698846122355L2440.9121309042102 559.7318287311496L2442.651963512316 563.8501666769191Q2438.6877879495432 573.0558632615806 2430.36301926772 578.2092914931853Q2422.038250585897 583.36271972479 2410.938559010133 583.36271972479Z " fill="#ffffff" transform="matrix(0.35689792963185724,0,0,0.3568979296318573,0,107.58594014667037)"/></g></svg>