<svg xmlns="http://www.w3.org/2000/svg" version="1.1" xmlns:xlink="http://www.w3.org/1999/xlink" xmlns:svgjs="http://svgjs.dev/svgjs" width="100%" height="100%" viewBox="0 0 1000 600"><rect width="1000" height="600" x="0" y="0" fill="#3a1361"/><g><rect width="333.3333333333333" height="333.3333333333333" rx="13.333333333333334" ry="13.333333333333334" y="347.10361323591064" fill="#ffffff" transform="matrix(0.3847557564946947,0,0,0.38475575649469473,0,102.32391017507543)" x="324.8814392089843"/><path d="M468.05550425839624 455.8190069665415L460.975943459316 467.4930582433922Q457.8551574744153 463.93882976058865 453.6941094945478 461.1359016074834Q449.5330615146802 458.3329734543782 444.3317515398457 456.2524494644444Q439.13044156501127 454.1719254745106 433.2067274270053 452.9293903138557Q427.25411712247256 451.6579589866739 420.6079988212952 451.6579589866739L420.6079988212952 451.6579589866739Q401.2475672483003 451.6579589866739 392.20306712539366 459.05537761754965Q383.1585670024871 466.45279624842533 383.1585670024871 479.138213353716L383.1585670024871 479.138213353716Q383.1585670024871 487.8648556448272 387.43519964846206 492.8638924539737Q391.68293612791024 497.8629292631201 400.8430209169242 500.98371524802076Q410.00310570593825 504.10450123292145 424.13333113757193 507.4275603835101L424.13333113757193 507.4275603835101Q439.9684303942901 510.7506195340988 451.41131233892594 515.3451100118693Q462.85419428356175 519.9107043231129 469.09576625336314 527.7126692853645Q475.3373382231645 535.5146342476162 475.3373382231645 548.8357670164978L475.3373382231645 548.8357670164978Q475.3373382231645 559.0361138004787 471.3785634089849 566.520220930935Q467.41978859480537 574.0043280613913 460.3402277957251 579.0033648705378Q453.2606669966449 584.0024016796842 443.49376271056684 586.3718873348867Q433.7268584244888 588.7702691566158 422.05280714763813 588.7702691566158L422.05280714763813 588.7702691566158Q410.6099252030023 588.7702691566158 400.1206167537528 586.3718873348867Q389.60241213797644 584.0024016796842 380.2400541832744 579.3212227023332Q370.87769622857235 574.6400437249822 362.75787343452527 567.3582097602139L362.75787343452527 567.3582097602139L370.0397073992935 555.4818853176752Q373.99848221347304 559.6429332975428 379.51765002010296 563.2838502799268Q385.03681782673283 566.924767262311 391.79852079401763 569.8432800815237Q398.56022376130244 572.7617929007363 406.36218872355414 574.3221858931868Q414.16415368580584 575.882578885637 422.48624964554097 575.882578885637L422.48624964554097 575.882578885637Q440.17070355997816 575.882578885637 450.05319251216366 569.4387337501478Q459.9356814643491 562.9659924481314 459.9356814643491 550.2805753428407L459.9356814643491 550.2805753428407Q459.9356814643491 541.1204905538267 454.93664465520266 535.6302189137236Q449.9376078460562 530.1110511070938 439.9684303942901 526.5568226242901Q429.97035677599723 523.0314903080135 415.4066888464607 519.7084311574249L415.4066888464607 519.7084311574249Q400.00503208764536 516.1542026746213 389.4001389722884 511.7908815290657Q378.7952458569315 507.4275603835101 373.4783512159896 500.2613110848493Q368.1903527415746 493.06616561966166 368.1903527415746 481.2187373436498L368.1903527415746 481.2187373436498Q368.1903527415746 467.4930582433922 374.9520557088594 458.01511562258275Q381.71375867614415 448.5371730017733 393.561186952156 443.6537208587343Q405.40861522816783 438.77026871569524 420.8102719869832 438.77026871569524L420.8102719869832 438.77026871569524Q430.6060724395881 438.77026871569524 439.0148568989038 440.73520803952164Q447.4525375247464 442.7290435298748 454.6187868234072 446.4566490118395Q461.8139322885949 450.21315066033105 468.05550425839624 455.8190069665415L468.05550425839624 455.8190069665415ZM484.9019693435545 587.527733995961L546.6819733779773 439.81053071066214L558.9628441518919 439.81053071066214L620.3383018549387 587.527733995961L604.9366450961231 587.527733995961L585.8073828553431 541.3516598860415L519.4328883431501 541.3516598860415L500.50589926805793 587.527733995961L484.9019693435545 587.527733995961ZM522.5536743280506 529.9087779414058L582.4843237047544 529.9087779414058L552.7212721820906 456.85926896150846L522.5536743280506 529.9087779414058Z " fill="#3a1361" transform="matrix(0.3847557564946947,0,0,0.38475575649469473,0,102.32391017507543)"/><path d="M820.3770587235003 455.42731666931L815.0770872869691 464.1668614054676Q812.7407733476002 461.5060594189642 809.6256880951084 459.40770338082734Q806.5106028426165 457.3093473426905 802.6167462770019 455.7518047164446Q798.722889711387 454.19426209019866 794.2882197338813 453.26406302174627Q789.8319172199 452.3122314168182 784.8564338305033 452.3122314168182L784.8564338305033 452.3122314168182Q770.3626343918261 452.3122314168182 763.5916504749515 457.8501607545814Q756.8206665580769 463.38809009234467 756.8206665580769 472.8847736051496L756.8206665580769 472.8847736051496Q756.8206665580769 479.41779962079215 760.0222819564714 483.1602284310775Q763.2022648183901 486.90265724136276 770.0597788811672 489.23897118073165Q776.9172929439443 491.57528512010055 787.4956032805311 494.06302681479883L787.4956032805311 494.06302681479883Q799.3502332691805 496.5507685094972 807.9167177135331 499.99034180912355Q816.4832021578856 503.40828257227435 821.1558300366233 509.24906742069646Q825.828457915361 515.0898522691186 825.828457915361 525.0624515843876L825.828457915361 525.0624515843876Q825.828457915361 532.6987369602878 822.8648004181987 538.3015639074779Q819.9011429210362 543.904390854668 814.601171484505 547.6468196649532Q809.3012000479738 551.3892484752387 801.9894027192083 553.1631164662409Q794.6776053904429 554.9586169937188 785.9380606542852 554.9586169937188L785.9380606542852 554.9586169937188Q777.3715762099326 554.9586169937188 769.5189654692762 553.1631164662409Q761.6447221921441 551.3892484752387 754.6357803740375 547.8847775661852Q747.6268385559309 544.380306657132 741.5480958062768 538.9289074652713L741.5480958062768 538.9289074652713L746.9994949981375 530.0379349737843Q749.9631524952998 533.1530202262761 754.0949669621466 535.8787198222064Q758.2267814289934 538.6044194181368 763.2887949642926 540.7893056021762Q768.3508084995918 542.9741917862157 774.191593348014 544.1423487559Q780.0323781964361 545.3105057255844 786.2625487014197 545.3105057255844L786.2625487014197 545.3105057255844Q799.50166102451 545.3105057255844 806.8999884991781 540.4864500915173Q814.2983159738461 535.6407619209745 814.2983159738461 526.1440784081694L814.2983159738461 526.1440784081694Q814.2983159738461 519.2865643453924 810.5558871635609 515.1763824150212Q806.8134583532756 511.0445679481744 799.3502332691805 508.383765961671Q791.86537564861 505.7445965116432 780.9625772648885 503.25685481694484L780.9625772648885 503.25685481694484Q769.4324353233736 500.5960528304414 761.4932944368146 497.3295398226201Q753.5541535502556 494.06302681479883 749.5737668387384 488.6981577688407Q745.6150126636966 483.31165618640694 745.6150126636966 474.4423162313955L745.6150126636966 474.4423162313955Q745.6150126636966 464.1668614054676 750.6770261989958 457.0713894414585Q755.739039734295 449.9759174774493 764.6083796893065 446.32001881306655Q773.477719644318 442.6641201486838 785.0078615858328 442.6641201486838L785.0078615858328 442.6641201486838Q792.341291451074 442.6641201486838 798.6363595654844 444.13513262902717Q804.9530602163707 445.62777764584615 810.3179292623289 448.4183748512034Q815.7044308447627 451.2306045930363 820.3770587235003 455.42731666931L820.3770587235003 455.42731666931ZM878.9363349630514 541.5680769152991L881.7269321684087 550.1345613596516Q880.4938775892973 550.6104771621157 877.8330756027939 551.843531741227Q875.1939061527661 553.098218856814 871.4514773424809 554.0284179252665Q867.7090485321955 554.9586169937188 863.3609087005924 554.9586169937188L863.3609087005924 554.9586169937188Q858.8397085771841 554.9586169937188 854.8593218656667 553.2496466121435Q850.900567690625 551.5406762305681 848.5642537512562 548.0362053215148Q846.2279398118874 544.5317344124614 846.2279398118874 539.3831907312597L846.2279398118874 539.3831907312597L846.2279398118874 481.29983029417264L835.0006533810314 481.29983029417264L835.0006533810314 472.8847736051496L846.2279398118874 472.8847736051496L846.2279398118874 445.4763498905167L856.8062501484741 445.4763498905167L856.8062501484741 472.8847736051496L875.4967616634251 472.8847736051496L875.4967616634251 481.29983029417264L856.8062501484741 481.29983029417264L856.8062501484741 536.4195332340973Q857.1307381956087 540.7893056021762 860.0078655468685 542.9741917862157Q862.8849928981283 545.159077970255 866.6274217084136 545.159077970255L866.6274217084136 545.159077970255Q870.9971940764925 545.159077970255 874.5665625949727 543.666432953436Q878.1575636499285 542.1954204730926 878.9363349630514 541.5680769152991L878.9363349630514 541.5680769152991ZM930.010753582032 555.5859605515122L930.010753582032 555.5859605515122Q921.29284138235 555.5859605515122 913.829616298255 552.2329173977885Q906.3447586776844 548.8798742440647 900.8933594858237 543.0390893956426Q895.441960293963 537.1983045472203 892.4134051873738 529.5836517077959Q889.3632175443088 521.9473663318959 889.3632175443088 513.2294541322137L889.3632175443088 513.2294541322137Q889.3632175443088 501.8507399460284 894.5766588349375 492.3540564332235Q899.8117326620418 482.8573729204185 908.9839281277121 477.16801582732586Q918.1777561298582 471.47865873423314 929.8593258267025 471.47865873423314L929.8593258267025 471.47865873423314Q941.8653835706814 471.47865873423314 950.8212536715954 477.23291343675277Q959.7771237725093 483.00880067574803 964.9040349172354 492.4189540426504Q970.0525785984372 501.8507399460284 970.0525785984372 513.0563938404086L970.0525785984372 513.0563938404086Q970.0525785984372 514.3110809559957 970.0525785984372 515.4792379256801Q970.0525785984372 516.6473948953646 969.9011508431078 517.2747384531581L969.9011508431078 517.2747384531581L900.4174436833597 517.2747384531581Q901.1962149964826 525.99265065284 905.3280294633294 532.7636345697147Q909.4598439301761 539.5346184865891 916.0794000917214 543.5150051981066Q922.6989562532664 547.4953919096238 930.4866693844959 547.4953919096238L930.4866693844959 547.4953919096238Q938.425810271055 547.4953919096238 945.5212822350642 543.428475052204Q952.5951216625976 539.3831907312597 955.4073514044305 532.8501647156172L955.4073514044305 532.8501647156172L964.6011794065765 535.3379064103156Q962.1134377118782 541.0921611128351 956.9648940306764 545.7647889915729Q951.8163503494748 550.4374168703106 944.8939386772706 553.0116887109114Q937.9715270050666 555.5859605515122 930.010753582032 555.5859605515122ZM900.1145881727007 509.63845307725796L900.1145881727007 509.63845307725796L960.0799792831683 509.63845307725796Q959.4526357253748 500.76911312224655 955.320821258528 494.06302681479883Q951.2106393281568 487.35694050735117 944.5910831666117 483.549614087639Q937.9715270050666 479.74228766792675 930.010753582032 479.74228766792675L930.010753582032 479.74228766792675Q922.0716126954729 479.74228766792675 915.5385866798304 483.549614087639Q908.9839281277121 487.35694050735117 904.873746197341 494.14955696070143Q900.7419317304942 500.920540877576 900.1145881727007 509.63845307725796ZM1000.8789430762209 554.0284179252665L990.3006327396341 554.0284179252665L990.3006327396341 481.29983029417264L979.0733463087781 481.29983029417264L979.0733463087781 472.8847736051496L990.3006327396341 472.8847736051496L990.3006327396341 470.6998874211102Q990.3006327396341 460.72728810584124 993.1777600908939 453.56691853240517Q996.0548874421537 446.4065489589691 1001.4413890245875 442.5775900027812Q1006.8062580705456 438.77026358306904 1014.1180553993112 438.77026358306904L1014.1180553993112 438.77026358306904Q1018.963743569854 438.77026358306904 1023.4633111567866 440.1763784539855Q1027.984511280195 441.5824933249019 1031.2510242880162 443.9188072642708L1031.2510242880162 443.9188072642708L1027.984511280195 451.53346010369523Q1025.9726853879606 449.82448972211984 1022.6845398436636 448.89429065366744Q1019.4180268358424 447.96409158521504 1016.1515138280212 447.96409158521504L1016.1515138280212 447.96409158521504Q1008.8397164992556 447.96409158521504 1004.8593297877381 453.7183462877346Q1000.8789430762209 459.4942335267299 1000.8789430762209 470.3970319104513L1000.8789430762209 470.3970319104513L1000.8789430762209 472.8847736051496L1023.3118834014571 472.8847736051496L1023.3118834014571 481.29983029417264L1000.8789430762209 481.29983029417264L1000.8789430762209 554.0284179252665ZM1031.2510242880162 530.6652785315778L1031.2510242880162 530.6652785315778Q1031.2510242880162 523.0289931556777 1035.620796656095 517.5126963543901Q1039.990569024174 511.9747670166268 1047.6917520095008 508.94621191003756Q1055.392934994828 505.89602426697263 1065.516962065426 505.89602426697263L1065.516962065426 505.89602426697263Q1071.4442770597511 505.89602426697263 1077.825875320064 506.8262233354251Q1084.2074735803772 507.7780549403531 1089.2045895062492 509.63845307725796L1089.2045895062492 509.63845307725796L1089.2045895062492 502.7809390144808Q1089.2045895062492 492.50548418855294 1083.1258467565954 486.4267414388988Q1077.047104006941 480.34799868924455 1066.2957333785494 480.34799868924455L1066.2957333785494 480.34799868924455Q1059.7627073629064 480.34799868924455 1053.4460067120203 482.770842774516Q1047.1509385976096 485.1936868597874 1040.2934245348329 489.86631473852515L1040.2934245348329 489.86631473852515L1036.2481402138883 482.38145711795454Q1044.1872811004473 476.9300579260938 1051.8235664763474 474.2043583301635Q1059.4598518522475 471.47865873423314 1067.3989927388066 471.47865873423314L1067.3989927388066 471.47865873423314Q1082.3470754434725 471.47865873423314 1091.0649876431544 480.04514317858565Q1099.7828998428363 488.61162762293816 1099.7828998428363 503.71113808293325L1099.7828998428363 503.71113808293325L1099.7828998428363 541.2652214046402Q1099.7828998428363 543.428475052204 1100.7347314477643 544.4452042665589Q1101.6649305162168 545.4619334809139 1103.6767564084512 545.6133612362433L1103.6767564084512 545.6133612362433L1103.6767564084512 554.0284179252665Q1101.9677860268757 554.1798456805959 1100.7347314477643 554.3312734359254Q1099.4800443321774 554.5043337277305 1098.8527007743837 554.3312734359254L1098.8527007743837 554.3312734359254Q1094.9588442087688 554.1798456805959 1092.947018316535 551.843531741227Q1090.9135598878247 549.5072178018581 1090.7621321324955 546.8680483518303L1090.7621321324955 546.8680483518303L1090.6107043771658 540.9407333575057Q1085.1593051853051 547.9496751756122 1076.4197604491478 551.7786341318001Q1067.7018482494655 555.5859605515122 1058.6810805391247 555.5859605515122L1058.6810805391247 555.5859605515122Q1050.8933674078953 555.5859605515122 1044.5766667570088 552.2329173977885Q1038.2599661061226 548.8798742440647 1034.7554951970696 543.2121496874477Q1031.2510242880162 537.5227925943549 1031.2510242880162 530.6652785315778ZM1085.6135884512937 536.8954490365613L1085.6135884512937 536.8954490365613Q1087.3225588328687 534.710562852522 1088.2743904377971 532.6987369602878Q1089.2045895062492 530.6652785315778 1089.2045895062492 529.1077359053318L1089.2045895062492 529.1077359053318L1089.2045895062492 517.2747384531581Q1083.9046180697183 515.2412800244481 1078.2152609766254 514.1596532006663Q1072.525903883533 513.0563938404086 1066.7716491810133 513.0563938404086L1066.7716491810133 513.0563938404086Q1055.392934994828 513.0563938404086 1048.383993176721 517.577593963817Q1041.3750513586147 522.0987940872253 1041.3750513586147 529.8865072184549L1041.3750513586147 529.8865072184549Q1041.3750513586147 534.407707341863 1043.7113652979833 538.3664615169048Q1046.0476792373524 542.346848228422 1050.5688793607605 544.9211200690229Q1055.090079484169 547.4953919096238 1061.168822233823 547.4953919096238L1061.168822233823 547.4953919096238Q1068.805107609723 547.4953919096238 1075.4246637712681 544.5317344124614Q1082.0442199328136 541.5680769152991 1085.6135884512937 536.8954490365613ZM1190.899143478222 506.5233678247661L1190.899143478222 554.0284179252665L1180.3208331416354 554.0284179252665L1180.3208331416354 508.70825400880557Q1180.3208331416354 494.3658823254578 1176.1024885288857 487.74632616391267Q1171.9057764526124 481.12677000236755 1162.8633762057957 481.12677000236755L1162.8633762057957 481.12677000236755Q1156.6332057008121 481.12677000236755 1150.5760954876337 484.1769576454324Q1144.4973527379793 487.2055127520217 1139.8896224686687 492.4189540426504Q1135.3035247358334 497.6540278697547 1133.2700663071232 504.33848164072674L1133.2700663071232 504.33848164072674L1133.2700663071232 554.0284179252665L1122.6917559705366 554.0284179252665L1122.6917559705366 472.8847736051496L1132.3398672386706 472.8847736051496L1132.3398672386706 491.25079707296595Q1135.6063802464923 485.34511461511687 1140.9063516830233 480.9104446376112Q1146.2063231195548 476.4541421236298 1152.9124094270023 473.9664004289315Q1159.5968631979745 471.47865873423314 1166.7572327714106 471.47865873423314L1166.7572327714106 471.47865873423314Q1173.4633190788581 471.47865873423314 1178.135946957596 473.9664004289315Q1182.8085748363337 476.4541421236298 1185.6208045781664 481.06187239294064Q1188.4114017835236 485.6479701257758 1189.6660888991105 492.11609853199144Q1190.899143478222 498.5842269382071 1190.899143478222 506.5233678247661L1190.899143478222 506.5233678247661ZM1248.0739373833326 555.5859605515122L1248.0739373833326 555.5859605515122Q1239.3560251836502 555.5859605515122 1231.9576977089823 552.2329173977885Q1224.5593702343144 548.8798742440647 1219.1728686518804 543.0390893956426Q1213.8079996059223 537.1983045472203 1210.84434210876 529.6485493172229Q1207.8806846115976 522.0987940872253 1207.8806846115976 513.6837373982022L1207.8806846115976 513.6837373982022Q1207.8806846115976 504.96582519852024 1210.84434210876 497.41606996852266Q1213.8079996059223 489.86631473852515 1219.259398797783 484.025529890103Q1224.7107979896437 478.1847450416808 1232.109125464312 474.83170188795697Q1239.50745293898 471.47865873423314 1248.2253651386618 471.47865873423314L1248.2253651386618 471.47865873423314Q1256.9432773383437 471.47865873423314 1264.276707203585 474.83170188795697Q1271.5885045323503 478.1847450416808 1277.0399037242114 484.025529890103Q1282.491302916072 489.86631473852515 1285.4549604132344 497.41606996852266Q1288.4186179103967 504.96582519852024 1288.4186179103967 513.6837373982022L1288.4186179103967 513.6837373982022Q1288.4186179103967 522.0987940872253 1285.4549604132344 529.6485493172229Q1282.491302916072 537.1983045472203 1277.1264338701135 543.0390893956426Q1271.73993228768 548.8798742440647 1264.341604813012 552.2329173977885Q1256.9432773383437 555.5859605515122 1248.0739373833326 555.5859605515122ZM1218.6320552399893 513.8351651535316L1218.6320552399893 513.8351651535316Q1218.6320552399893 522.8775654003482 1222.6124419515068 530.2758928750163Q1226.5711961265483 537.6742203496843 1233.2772824339963 541.9574625718606Q1239.961736204968 546.2407047940369 1248.0739373833326 546.2407047940369L1248.0739373833326 546.2407047940369Q1256.1645060252208 546.2407047940369 1262.8705923326684 541.870932425958Q1269.5550461036405 537.5227925943549 1273.6219629610605 529.9730373643574Q1277.6672472820046 522.4016495978842 1277.6672472820046 513.5323096428727L1277.6672472820046 513.5323096428727Q1277.6672472820046 504.4899093960562 1273.6219629610605 497.0266843119612Q1269.5550461036405 489.54182669139055 1262.8705923326684 485.1936868597874Q1256.1645060252208 480.8239144917086 1248.0739373833326 480.8239144917086L1248.0739373833326 480.8239144917086Q1239.961736204968 480.8239144917086 1233.342180043423 485.34511461511687Q1226.722623881878 489.86631473852515 1222.677339560934 497.2646422131932Q1218.6320552399893 504.66296968786133 1218.6320552399893 513.8351651535316ZM1332.808582758405 555.5859605515122L1332.808582758405 555.5859605515122Q1322.8359834431362 555.5859605515122 1314.2694989987835 552.319447543691Q1305.7030145544309 549.0529345358698 1299.4728440494473 542.346848228422L1299.4728440494473 542.346848228422L1303.8209838810508 534.8619906078515Q1310.6784979438276 541.2652214046402 1317.6225421525073 544.1423487559Q1324.5449538247117 547.0194761071598 1332.332666955941 547.0194761071598L1332.332666955941 547.0194761071598Q1341.8293504687458 547.0194761071598 1347.7566654630705 543.2121496874477Q1353.6623479209197 539.3831907312597 1353.6623479209197 532.2228211578237L1353.6623479209197 532.2228211578237Q1353.6623479209197 527.3987655237565 1350.78522056966 524.8244936831557Q1347.9080932184002 522.2502218425548 1342.543224172442 520.6277816068819Q1337.156722590008 518.9837088347334 1329.6934975059135 517.1233106978286L1329.6934975059135 517.1233106978286Q1321.27844081689 514.7869967584597 1315.5890837237976 512.2127249178588Q1309.8997266307047 509.63845307725796 1307.0225992794449 505.65806636574064Q1304.145471928185 501.69931219069895 1304.145471928185 495.3177139303858L1304.145471928185 495.3177139303858Q1304.145471928185 487.35694050735117 1308.1042261032267 482.1434992167225Q1312.084612814744 476.9300579260938 1319.0070244869485 474.2043583301635Q1325.9510686956278 471.47865873423314 1334.5175531399805 471.47865873423314L1334.5175531399805 471.47865873423314Q1343.862808897456 471.47865873423314 1351.0231784708917 474.4423162313955Q1358.1835480443278 477.40597372855785 1362.704748167736 482.68431262861344L1362.704748167736 482.68431262861344L1357.5562044865346 489.86631473852515Q1353.2080646549311 484.8691988126528 1347.2158520511798 482.4679872638571Q1341.2020069109526 480.04514317858565 1333.8902095821868 480.04514317858565L1333.8902095821868 480.04514317858565Q1328.91472619279 480.04514317858565 1324.393526069382 481.36472790359954Q1319.872325945974 482.68431262861344 1316.995198594714 485.73450027167837Q1314.1180712434543 488.7630553782676 1314.1180712434543 494.06302681479883L1314.1180712434543 494.06302681479883Q1314.1180712434543 498.43279918287766 1316.281324891018 500.83401073167346Q1318.4662110750573 503.25685481694484 1322.8359834431362 504.8792950526177Q1327.1841232747392 506.5233678247661 1333.587354071528 508.383765961671L1333.587354071528 508.383765961671Q1342.7595495371984 510.89314019284495 1349.6170635999752 513.4457794969701Q1356.4745776627524 516.020051337571 1360.217006473038 520.0653356585153Q1363.9594352833233 524.1322525159352 1363.9594352833233 531.4440498447007L1363.9594352833233 531.4440498447007Q1363.9594352833233 542.8227640308861 1355.3929508389706 549.2043622911992Q1346.8264663946184 555.5859605515122 1332.808582758405 555.5859605515122ZM1411.2914250920185 554.0284179252665L1457.5634206134073 443.44289146180677L1466.7572486155532 443.44289146180677L1512.7047560898077 554.0284179252665L1501.1746141482927 554.0284179252665L1486.832242464945 519.4596246371975L1437.1639387168811 519.4596246371975L1422.9729947888627 554.0284179252665L1411.2914250920185 554.0284179252665ZM1439.5002526562498 510.89314019284495L1484.3445007702467 510.89314019284495L1462.0846207368154 456.20608798243296L1439.5002526562498 510.89314019284495ZM1594.6271717230475 506.5233678247661L1594.6271717230475 554.0284179252665L1584.027228849985 554.0284179252665L1584.027228849985 508.70825400880557Q1584.027228849985 494.3658823254578 1579.8305167737112 487.74632616391267Q1575.612172160962 481.12677000236755 1566.5914044506212 481.12677000236755L1566.5914044506212 481.12677000236755Q1560.3612339456372 481.12677000236755 1554.2824911959833 484.1769576454324Q1548.203748446329 487.2055127520217 1543.6176507134937 492.4189540426504Q1539.009920444183 497.6540278697547 1536.9980945519487 504.33848164072674L1536.9980945519487 504.33848164072674L1536.9980945519487 554.0284179252665L1526.3981516788863 554.0284179252665L1526.3981516788863 472.8847736051496L1536.0678954834962 472.8847736051496L1536.0678954834962 491.25079707296595Q1539.3344084913174 485.34511461511687 1544.6343799278488 480.9104446376112Q1549.9127188279044 476.4541421236298 1556.618805135352 473.9664004289315Q1563.3248914428 471.47865873423314 1570.4852610162357 471.47865873423314L1570.4852610162357 471.47865873423314Q1577.1697147872078 471.47865873423314 1581.8423426659456 473.9664004289315Q1586.5149705446834 476.4541421236298 1589.327200286516 481.06187239294064Q1592.1394300283491 485.6479701257758 1593.3724846074606 492.11609853199144Q1594.6271717230475 498.5842269382071 1594.6271717230475 506.5233678247661L1594.6271717230475 506.5233678247661ZM1610.6568812514947 530.6652785315778L1610.6568812514947 530.6652785315778Q1610.6568812514947 523.0289931556777 1615.0266536195736 517.5126963543901Q1619.3964259876525 511.9747670166268 1627.0976089729797 508.94621191003756Q1634.7987919583065 505.89602426697263 1644.922819028905 505.89602426697263L1644.922819028905 505.89602426697263Q1650.8501340232297 505.89602426697263 1657.231732283543 506.8262233354251Q1663.6133305438561 507.7780549403531 1668.6104464697282 509.63845307725796L1668.6104464697282 509.63845307725796L1668.6104464697282 502.7809390144808Q1668.6104464697282 492.50548418855294 1662.531703720074 486.4267414388988Q1656.45296097042 480.34799868924455 1645.7015903420279 480.34799868924455L1645.7015903420279 480.34799868924455Q1639.1685643263854 480.34799868924455 1632.8518636754993 482.770842774516Q1626.5567955610886 485.1936868597874 1619.6992814983114 489.86631473852515L1619.6992814983114 489.86631473852515L1615.6539971773673 482.38145711795454Q1623.5931380639263 476.9300579260938 1631.2294234398264 474.2043583301635Q1638.8657088157265 471.47865873423314 1646.8048497022855 471.47865873423314L1646.8048497022855 471.47865873423314Q1661.752932406951 471.47865873423314 1670.470844606633 480.04514317858565Q1679.1887568063148 488.61162762293816 1679.1887568063148 503.71113808293325L1679.1887568063148 503.71113808293325L1679.1887568063148 541.2652214046402Q1679.1887568063148 543.428475052204 1680.1405884112432 544.4452042665589Q1681.0707874796954 545.4619334809139 1683.0826133719297 545.6133612362433L1683.0826133719297 545.6133612362433L1683.0826133719297 554.0284179252665Q1681.3736429903543 554.1798456805959 1680.1405884112432 554.3312734359254Q1678.885901295656 554.5043337277305 1678.2585577378627 554.3312734359254L1678.2585577378627 554.3312734359254Q1674.3647011722478 554.1798456805959 1672.3528752800134 551.843531741227Q1670.3194168513037 549.5072178018581 1670.167989095974 546.8680483518303L1670.167989095974 546.8680483518303L1670.0165613406448 540.9407333575057Q1664.565162148784 547.9496751756122 1655.8256174126263 551.7786341318001Q1647.1077052129444 555.5859605515122 1638.0869375026036 555.5859605515122L1638.0869375026036 555.5859605515122Q1630.2992243713738 555.5859605515122 1623.9825237204877 552.2329173977885Q1617.6658230696016 548.8798742440647 1614.1613521605482 543.2121496874477Q1610.6568812514947 537.5227925943549 1610.6568812514947 530.6652785315778ZM1665.0194454147722 536.8954490365613L1665.0194454147722 536.8954490365613Q1666.7284157963477 534.710562852522 1667.6802474012757 532.6987369602878Q1668.6104464697282 530.6652785315778 1668.6104464697282 529.1077359053318L1668.6104464697282 529.1077359053318L1668.6104464697282 517.2747384531581Q1663.3104750331968 515.2412800244481 1657.6211179401043 514.1596532006663Q1651.9317608470114 513.0563938404086 1646.1775061444919 513.0563938404086L1646.1775061444919 513.0563938404086Q1634.7987919583065 513.0563938404086 1627.7898501402 517.577593963817Q1620.7809083220936 522.0987940872253 1620.7809083220936 529.8865072184549L1620.7809083220936 529.8865072184549Q1620.7809083220936 534.407707341863 1623.1172222614623 538.3664615169048Q1625.453536200831 542.346848228422 1629.9747363242395 544.9211200690229Q1634.4959364476476 547.4953919096238 1640.574679197302 547.4953919096238L1640.574679197302 547.4953919096238Q1648.210964573202 547.4953919096238 1654.830520734747 544.5317344124614Q1661.450076896292 541.5680769152991 1665.0194454147722 536.8954490365613ZM1734.65458032985 555.1100447490483L1734.65458032985 555.1100447490483Q1726.3909513961562 555.1100447490483 1719.3820095780497 551.6921039858976Q1712.3730677599428 548.2741632227469 1707.311054224644 542.4333783743245Q1702.2490406893448 536.5925935259024 1699.4368109475117 529.1077359053318Q1696.6462137421545 521.6228782847612 1696.6462137421545 513.6837373982022L1696.6462137421545 513.6837373982022Q1696.6462137421545 505.1172529538497 1699.371913338085 497.56749772385217Q1702.0976129340152 490.0177424938546 1707.1596264693144 484.0904274995299Q1712.2216400046136 478.1847450416808 1719.0791540673908 474.83170188795697Q1725.9150355936922 471.47865873423314 1734.3300922827157 471.47865873423314L1734.3300922827157 471.47865873423314Q1744.7786074004484 471.47865873423314 1752.4797903857752 476.77863017076436Q1760.1809733711025 482.0786016072956 1765.4809448076335 489.86631473852515L1765.4809448076335 489.86631473852515L1765.4809448076335 472.8847736051496L1774.9776283204383 472.8847736051496L1774.9776283204383 554.3312734359254Q1774.9776283204383 565.5585598667813 1769.6127592744806 573.2597428521083Q1764.247890228522 580.9825583739109 1755.1189598358028 584.8764149395258Q1746.0116619795594 588.7702715051405 1735.2602913511678 588.7702715051405L1735.2602913511678 588.7702715051405Q1721.4154680067595 588.7702715051405 1712.8489835624073 583.7731555792682Q1704.2824991180546 578.7976721898715 1698.831099926194 570.3826155008485L1698.831099926194 570.3826155008485L1705.3641259418364 565.2340718196467Q1710.1881815759039 572.8703571955468 1718.2138526083654 576.612786005832Q1726.239523640827 580.3552148161175 1735.2602913511678 580.3552148161175L1735.2602913511678 580.3552148161175Q1743.2210647742022 580.3552148161175 1749.8406209357472 577.4780874648577Q1756.4601770972927 574.5793275771223 1760.4189312723342 568.8250728746025Q1764.3993179838517 563.0708181720829 1764.3993179838517 554.3312734359254L1764.3993179838517 554.3312734359254L1764.3993179838517 538.3015639074779Q1759.726690105114 545.937849283378 1751.6144889267498 550.5239470162131Q1743.5239202848616 555.1100447490483 1734.65458032985 555.1100447490483ZM1737.5966052905364 546.2407047940369L1737.5966052905364 546.2407047940369Q1742.4422934610798 546.2407047940369 1746.8769634385849 544.5317344124614Q1751.311633416091 542.8227640308861 1755.0540622263761 539.9240041431507Q1758.7964910366618 537.0468767918908 1761.2842327313597 533.4775082734106Q1763.771974426058 529.8865072184549 1764.3993179838517 526.1440784081694L1764.3993179838517 526.1440784081694L1764.3993179838517 501.07196863290545Q1762.063004044483 495.14465363858073 1757.6932316764037 490.55855590574555Q1753.3450918448007 485.97245817291036 1747.8071625070374 483.3981863323095Q1742.2692331692742 480.8239144917086 1736.3635507114254 480.8239144917086L1736.3635507114254 480.8239144917086Q1729.5060366486482 480.8239144917086 1724.14116760269 483.70104184296844Q1718.754666020256 486.5781691942282 1715.0987673558734 491.3373272188685Q1711.4428686914907 496.09648524350877 1709.4094102627805 502.00216770135785Q1707.3975843705466 507.92948269568257 1707.3975843705466 513.8351651535316L1707.3975843705466 513.8351651535316Q1707.3975843705466 520.3898237056499 1709.7338983099153 526.230608554072Q1712.0702122492844 532.0713934024942 1716.1803941796552 536.6574911353293Q1720.3122086465023 541.2652214046402 1725.8501379842655 543.7529630993386Q1731.3664347855529 546.2407047940369 1737.5966052905364 546.2407047940369ZM1866.5697877582884 506.5233678247661L1866.5697877582884 554.0284179252665L1855.969844885226 554.0284179252665L1855.969844885226 508.70825400880557Q1855.969844885226 494.3658823254578 1851.7731328089521 487.74632616391267Q1847.5764207326783 481.12677000236755 1838.5340204858617 481.12677000236755L1838.5340204858617 481.12677000236755Q1832.303849980878 481.12677000236755 1826.2251072312238 484.1769576454324Q1820.14636448157 487.2055127520217 1815.5602667487346 492.4189540426504Q1810.9741690158994 497.6540278697547 1808.9407105871896 504.33848164072674L1808.9407105871896 504.33848164072674L1808.9407105871896 554.0284179252665L1798.3407677141272 554.0284179252665L1798.3407677141272 472.8847736051496L1808.010511518737 472.8847736051496L1808.010511518737 491.25079707296595Q1811.2770245265583 485.34511461511687 1816.5769959630898 480.9104446376112Q1821.8769673996208 476.4541421236298 1828.561421170593 473.9664004289315Q1835.2675074780404 471.47865873423314 1842.4278770514766 471.47865873423314L1842.4278770514766 471.47865873423314Q1849.1339633589241 471.47865873423314 1853.8065912376624 473.9664004289315Q1858.4792191163997 476.4541421236298 1861.269816321757 481.06187239294064Q1864.08204606359 485.6479701257758 1865.315100642701 492.11609853199144Q1866.5697877582884 498.5842269382071 1866.5697877582884 506.5233678247661L1866.5697877582884 506.5233678247661ZM1923.7229491269227 555.5859605515122L1923.7229491269227 555.5859605515122Q1915.0050369272412 555.5859605515122 1907.6067094525729 552.2329173977885Q1900.208381977905 548.8798742440647 1894.8435129319464 543.0390893956426Q1889.4570113495129 537.1983045472203 1886.5149863888264 529.6485493172229Q1883.551328891664 522.0987940872253 1883.551328891664 513.6837373982022L1883.551328891664 513.6837373982022Q1883.551328891664 504.96582519852024 1886.5149863888264 497.41606996852266Q1889.4570113495129 489.86631473852515 1894.9084105413735 484.025529890103Q1900.3598097332342 478.1847450416808 1907.758137207902 474.83170188795697Q1915.1564646825705 471.47865873423314 1923.8960094187278 471.47865873423314L1923.8960094187278 471.47865873423314Q1932.6139216184101 471.47865873423314 1939.9257189471755 474.83170188795697Q1947.2591488124167 478.1847450416808 1952.7105480042774 484.025529890103Q1958.161947196138 489.86631473852515 1961.1039721568245 497.41606996852266Q1964.0676296539873 504.96582519852024 1964.0676296539873 513.6837373982022L1964.0676296539873 513.6837373982022Q1964.0676296539873 522.0987940872253 1961.1039721568245 529.6485493172229Q1958.161947196138 537.1983045472203 1952.7754456137045 543.0390893956426Q1947.4105765677464 548.8798742440647 1940.012249093078 552.2329173977885Q1932.6139216184101 555.5859605515122 1923.7229491269227 555.5859605515122ZM1894.3026995200557 513.8351651535316L1894.3026995200557 513.8351651535316Q1894.3026995200557 522.8775654003482 1898.2614536950973 530.2758928750163Q1902.2418404066148 537.6742203496843 1908.926294177587 541.9574625718606Q1915.6323804850344 546.2407047940369 1923.7229491269227 546.2407047940369L1923.7229491269227 546.2407047940369Q1931.8351503052868 546.2407047940369 1938.519604076259 541.870932425958Q1945.225690383707 537.5227925943549 1949.270974704651 529.9730373643574Q1953.3162590255952 522.4016495978842 1953.3162590255952 513.5323096428727L1953.3162590255952 513.5323096428727Q1953.3162590255952 504.4899093960562 1949.270974704651 497.0266843119612Q1945.225690383707 489.54182669139055 1938.519604076259 485.1936868597874Q1931.8351503052868 480.8239144917086 1923.7229491269227 480.8239144917086L1923.7229491269227 480.8239144917086Q1915.6323804850344 480.8239144917086 1909.0128243234894 485.34511461511687Q1902.393268161944 489.86631473852515 1898.3479838409999 497.2646422131932Q1894.3026995200557 504.66296968786133 1894.3026995200557 513.8351651535316ZM2008.4575945019956 555.5859605515122L2008.4575945019956 555.5859605515122Q1998.4849951867268 555.5859605515122 1989.918510742374 552.319447543691Q1981.3520262980214 549.0529345358698 1975.1218557930379 542.346848228422L1975.1218557930379 542.346848228422L1979.4916281611168 534.8619906078515Q1986.349142223894 541.2652214046402 1993.2715538960979 544.1423487559Q2000.2155981047777 547.0194761071598 2008.003311236007 547.0194761071598L2008.003311236007 547.0194761071598Q2017.4999947488122 547.0194761071598 2023.4056772066615 543.2121496874477Q2029.3329922009862 539.3831907312597 2029.3329922009862 532.2228211578237L2029.3329922009862 532.2228211578237Q2029.3329922009862 527.3987655237565 2026.455864849726 524.8244936831557Q2023.5787374984666 522.2502218425548 2018.1922359160326 520.6277816068819Q2012.8273668700745 518.9837088347334 2005.3425092495036 517.1233106978286L2005.3425092495036 517.1233106978286Q1996.9274525604806 514.7869967584597 1991.2597280038635 512.2127249178588Q1985.570370910771 509.63845307725796 1982.6932435595113 505.65806636574064Q1979.7944836717757 501.69931219069895 1979.7944836717757 495.3177139303858L1979.7944836717757 495.3177139303858Q1979.7944836717757 487.35694050735117 1983.774870383293 482.1434992167225Q1987.7552570948105 476.9300579260938 1994.6776687670144 474.2043583301635Q2001.6000804392183 471.47865873423314 2010.166564883571 471.47865873423314L2010.166564883571 471.47865873423314Q2019.5118206410461 471.47865873423314 2026.6938227509581 474.4423162313955Q2033.8541923243943 477.40597372855785 2038.3753924478024 482.68431262861344L2038.3753924478024 482.68431262861344L2033.2268487666006 489.86631473852515Q2028.8570763985217 484.8691988126528 2022.8648637947704 482.4679872638571Q2016.8726511910186 480.04514317858565 2009.5608538622532 480.04514317858565L2009.5608538622532 480.04514317858565Q2004.5637379363807 480.04514317858565 2000.0425378129726 481.36472790359954Q1995.5429702260399 482.68431262861344 1992.6442103383047 485.73450027167837Q1989.7670829870444 488.7630553782676 1989.7670829870444 494.06302681479883L1989.7670829870444 494.06302681479883Q1989.7670829870444 498.43279918287766 1991.9519691710843 500.83401073167346Q1994.1368553551238 503.25685481694484 1998.4849951867268 504.8792950526177Q2002.8547675548052 506.5233678247661 2009.2363658151185 508.383765961671L2009.2363658151185 508.383765961671Q2018.4301938172644 510.89314019284495 2025.2877078800416 513.4457794969701Q2032.1452219428188 516.020051337571 2035.8660182166286 520.0653356585153Q2039.6084470269138 524.1322525159352 2039.6084470269138 531.4440498447007L2039.6084470269138 531.4440498447007Q2039.6084470269138 542.8227640308861 2031.0419625825612 549.2043622911992Q2022.4754781382085 555.5859605515122 2008.4575945019956 555.5859605515122ZM2093.1922398770685 541.5680769152991L2096.0044696189016 550.1345613596516Q2094.7497825033142 550.6104771621157 2092.110613053286 551.843531741227Q2089.449811066783 553.098218856814 2085.707382256498 554.0284179252665Q2081.9865859826887 554.9586169937188 2077.61681361461 554.9586169937188L2077.61681361461 554.9586169937188Q2073.095613491201 554.9586169937188 2069.1368593161596 553.2496466121435Q2065.1564726046417 551.5406762305681 2062.820158665273 548.0362053215148Q2060.4838447259044 544.5317344124614 2060.4838447259044 539.3831907312597L2060.4838447259044 539.3831907312597L2060.4838447259044 481.29983029417264L2049.2781908315246 481.29983029417264L2049.2781908315246 472.8847736051496L2060.4838447259044 472.8847736051496L2060.4838447259044 445.4763498905167L2071.0837875989664 445.4763498905167L2071.0837875989664 472.8847736051496L2089.7742991139176 472.8847736051496L2089.7742991139176 481.29983029417264L2071.0837875989664 481.29983029417264L2071.0837875989664 536.4195332340973Q2071.3866431096258 540.7893056021762 2074.263770460886 542.9741917862157Q2077.1408978121453 545.159077970255 2080.883326622431 545.159077970255L2080.883326622431 545.159077970255Q2085.25309899051 545.159077970255 2088.8224675089896 543.666432953436Q2092.4134685639456 542.1954204730926 2093.1922398770685 541.5680769152991L2093.1922398770685 541.5680769152991ZM2143.8123752300608 555.5859605515122L2143.8123752300608 555.5859605515122Q2135.0944630303784 555.5859605515122 2127.6961355557105 552.2329173977885Q2120.2978080810426 548.8798742440647 2114.9113064986086 543.0390893956426Q2109.54643745265 537.1983045472203 2106.582779955488 529.6485493172229Q2103.6191224583263 522.0987940872253 2103.6191224583263 513.6837373982022L2103.6191224583263 513.6837373982022Q2103.6191224583263 504.96582519852024 2106.582779955488 497.41606996852266Q2109.54643745265 489.86631473852515 2114.997836644511 484.025529890103Q2120.4492358363723 478.1847450416808 2127.84756331104 474.83170188795697Q2135.245890785708 471.47865873423314 2143.9638029853904 471.47865873423314L2143.9638029853904 471.47865873423314Q2152.681715185072 471.47865873423314 2160.0151450503135 474.83170188795697Q2167.326942379079 478.1847450416808 2172.778341570939 484.025529890103Q2178.2297407628002 489.86631473852515 2181.193398259962 497.41606996852266Q2184.157055757125 504.96582519852024 2184.157055757125 513.6837373982022L2184.157055757125 513.6837373982022Q2184.157055757125 522.0987940872253 2181.193398259962 529.6485493172229Q2178.2297407628002 537.1983045472203 2172.8648717168426 543.0390893956426Q2167.4783701344086 548.8798742440647 2160.08004265974 552.2329173977885Q2152.681715185072 555.5859605515122 2143.8123752300608 555.5859605515122ZM2114.370493086718 513.8351651535316L2114.370493086718 513.8351651535316Q2114.370493086718 522.8775654003482 2118.350879798235 530.2758928750163Q2122.3096339732765 537.6742203496843 2129.015720280724 541.9574625718606Q2135.7218065881725 546.2407047940369 2143.8123752300608 546.2407047940369L2143.8123752300608 546.2407047940369Q2151.902943871949 546.2407047940369 2158.6090301793965 541.870932425958Q2165.315116486844 537.5227925943549 2169.360400807789 529.9730373643574Q2173.4056851287332 522.4016495978842 2173.4056851287332 513.5323096428727L2173.4056851287332 513.5323096428727Q2173.4056851287332 504.4899093960562 2169.360400807789 497.0266843119612Q2165.315116486844 489.54182669139055 2158.6090301793965 485.1936868597874Q2151.902943871949 480.8239144917086 2143.8123752300608 480.8239144917086L2143.8123752300608 480.8239144917086Q2135.7218065881725 480.8239144917086 2129.1022504266275 485.34511461511687Q2122.4826942650816 489.86631473852515 2118.415777407662 497.2646422131932Q2114.370493086718 504.66296968786133 2114.370493086718 513.8351651535316ZM2201.1385968905006 520.5412514609793L2201.1385968905006 520.5412514609793L2201.1385968905006 472.8847736051496L2211.716907227087 472.8847736051496L2211.716907227087 518.6808533240744Q2211.716907227087 532.5256766684827 2216.476065251727 539.3831907312597Q2221.2135907398924 546.2407047940369 2230.558846497367 546.2407047940369L2230.558846497367 546.2407047940369Q2236.789017002351 546.2407047940369 2242.629801850773 543.5150051981066Q2248.4705866991953 540.7893056021762 2252.991786822604 535.727292066877Q2257.5129869460125 530.6652785315778 2259.849300885381 523.95919222413L2259.849300885381 523.95919222413L2259.849300885381 472.8847736051496L2270.449243758443 472.8847736051496L2270.449243758443 541.2652214046402Q2270.449243758443 543.428475052204 2271.3794428268957 544.4452042665589Q2272.3096418953482 545.4619334809139 2274.1700400322534 545.6133612362433L2274.1700400322534 545.6133612362433L2274.1700400322534 554.0284179252665Q2272.3096418953482 554.1798456805959 2271.228015071566 554.2663758264985Q2270.1247557113093 554.3312734359254 2269.1945566428567 554.3312734359254L2269.1945566428567 554.3312734359254Q2266.0794713903642 554.0284179252665 2263.829687596898 551.843531741227Q2261.5582712669566 549.6586455571876 2261.406843511627 546.5435603046958L2261.406843511627 546.5435603046958L2261.1039880009685 535.6407619209745Q2255.804016564436 544.9860176784498 2246.6967187081937 550.2859891149811Q2237.567788315474 555.5859605515122 2226.9894779788874 555.5859605515122L2226.9894779788874 555.5859605515122Q2214.2046489217855 555.5859605515122 2207.671622906143 546.7166205965009Q2201.1385968905006 537.8256481050139 2201.1385968905006 520.5412514609793Z " fill="#ffffff" transform="matrix(0.3847557564946947,0,0,0.38475575649469473,0,102.32391017507543)"/></g></svg>