<svg xmlns="http://www.w3.org/2000/svg" version="1.1" xmlns:xlink="http://www.w3.org/1999/xlink" xmlns:svgjs="http://svgjs.dev/svgjs" width="100%" height="100%" viewBox="0 0 1000 600"><rect width="1000" height="600" x="0" y="0" fill="#9b111e"/><g><rect width="333.3333333333333" height="333.3333333333333" rx="13.333333333333334" ry="13.333333333333334" y="337.88578332371185" fill="#ffffff" transform="matrix(0.395991231927102,0,0,0.395991231927102,0,100.20164814119403)" x="315.6634826660156"/><path d="M439.4192676442563 579.5524542905079Q422.75260102664697 579.5524542905079 414.2167214221422 570.0617135777024Q405.65190663253736 560.5999080499972 405.65190663253736 542.8915747687872L405.65190663253736 542.8915747687872L405.65190663253736 534.5582414599826L427.32436027244955 534.5582414599826L427.32436027244955 544.5408803194882Q427.32436027244955 558.7191210184963 439.2167213485562 558.7191210184963L439.2167213485562 558.7191210184963Q445.03269355365944 558.7191210184963 448.0708879891612 555.2758339915943Q451.08014723956285 551.8325469646923 451.08014723956285 544.135787728088L451.08014723956285 544.135787728088Q451.08014723956285 534.9633340513828 446.9134805851605 527.989954442279Q442.7468139307582 521.0165748331751 431.4910269268519 511.20754708426955L431.4910269268519 511.20754708426955Q417.3417214129439 498.70754712106253 411.69936031844077 488.60916752115685Q406.08593440903763 478.51078792125116 406.08593440903763 465.8082416623441L406.08593440903763 465.8082416623441Q406.08593440903763 448.5050009725344 414.8243603092425 439.04319544482905Q423.59172139454745 429.55245473202376 440.2583880121568 429.55245473202376L440.2583880121568 429.55245473202376Q456.693573148966 429.55245473202376 465.1426471981707 439.04319544482905Q473.59172124737546 448.5050009725344 473.59172124737546 466.2133342537443L473.59172124737546 466.2133342537443L473.59172124737546 472.2607879396477L451.9192676074633 472.2607879396477L451.9192676074633 464.76657499874347Q451.9192676074633 457.2723620578393 448.9968139123617 453.82907503093736Q446.07436021726005 450.3857880040354 440.46093430785686 450.3857880040354L440.46093430785686 450.3857880040354Q429.00260100825045 450.3857880040354 429.00260100825045 464.33254722224325L429.00260100825045 464.33254722224325Q429.00260100825045 472.2607879396477 433.25607321795286 479.14736199345157Q437.5384806127553 486.0050008621554 448.79426761666156 495.8140286110609L448.79426761666156 495.8140286110609Q463.17505461136966 508.3140285742679 468.58593422507266 518.4992137294737Q473.99681383877567 528.7133340697794 473.99681383877567 542.457546992287L473.99681383877567 542.457546992287Q473.99681383877567 560.3973617542972 465.1426471981707 569.9749080224025Q456.2884805575658 579.5524542905079 439.4192676442563 579.5524542905079L439.4192676442563 579.5524542905079ZM480.44936011607933 577.4691209633068L504.2051470831926 431.6357880592249L535.2526006955101 431.6357880592249L559.0083876626234 577.4691209633068L536.0917210634105 577.4691209633068L531.9250544090082 548.5050006781905L531.9250544090082 548.9390284546907L505.8833878189936 548.9390284546907L501.71672116459126 577.4691209633068L480.44936011607933 577.4691209633068ZM508.5743600332951 529.1473618462796L529.2051470096067 529.1473618462796L518.9910266693009 457.04088057703916L518.5859340779007 457.04088057703916L508.5743600332951 529.1473618462796Z " fill="#9b111e" transform="matrix(0.395991231927102,0,0,0.395991231927102,0,100.20164814119403)"/><path d="M766.0975055592953 579.5524542905079Q749.4308389416859 579.5524542905079 740.8949593371811 570.0617135777024Q732.3301445475763 560.5999080499972 732.3301445475763 542.8915747687872L732.3301445475763 542.8915747687872L732.3301445475763 534.5582414599826L754.0025981874885 534.5582414599826L754.0025981874885 544.5408803194882Q754.0025981874885 558.7191210184963 765.8949592635952 558.7191210184963L765.8949592635952 558.7191210184963Q771.7109314686984 558.7191210184963 774.7491259042001 555.2758339915943Q777.7583851546019 551.8325469646923 777.7583851546019 544.135787728088L777.7583851546019 544.135787728088Q777.7583851546019 534.9633340513828 773.5917185001995 527.989954442279Q769.4250518457972 521.0165748331751 758.1692648418908 511.20754708426955L758.1692648418908 511.20754708426955Q744.0199593279829 498.70754712106253 738.3775982334797 488.60916752115685Q732.7641723240765 478.51078792125116 732.7641723240765 465.8082416623441L732.7641723240765 465.8082416623441Q732.7641723240765 448.5050009725344 741.5025982242814 439.04319544482905Q750.2699593095864 429.55245473202376 766.9366259271958 429.55245473202376L766.9366259271958 429.55245473202376Q783.371811064005 429.55245473202376 791.8208851132097 439.04319544482905Q800.2699591624145 448.5050009725344 800.2699591624145 466.2133342537443L800.2699591624145 466.2133342537443L800.2699591624145 472.2607879396477L778.5975055225023 472.2607879396477L778.5975055225023 464.76657499874347Q778.5975055225023 457.2723620578393 775.6750518274007 453.82907503093736Q772.752598132299 450.3857880040354 767.1391722228959 450.3857880040354L767.1391722228959 450.3857880040354Q755.6808389232895 450.3857880040354 755.6808389232895 464.33254722224325L755.6808389232895 464.33254722224325Q755.6808389232895 472.2607879396477 759.9343111329918 479.14736199345157Q764.2167185277942 486.0050008621554 775.4725055317006 495.8140286110609L775.4725055317006 495.8140286110609Q789.8532925264086 508.3140285742679 795.2641721401117 518.4992137294737Q800.6750517538146 528.7133340697794 800.6750517538146 542.457546992287L800.6750517538146 542.457546992287Q800.6750517538146 560.3973617542972 791.8208851132097 569.9749080224025Q782.9667184726047 579.5524542905079 766.0975055592953 579.5524542905079L766.0975055592953 579.5524542905079ZM831.722505366132 577.4691209633068L831.722505366132 452.4691213312366L807.7641721033186 452.4691213312366L807.7641721033186 431.6357880592249L878.5975052281584 431.6357880592249L878.5975052281584 452.4691213312366L854.639171965345 452.4691213312366L854.639171965345 577.4691209633068L831.722505366132 577.4691209633068ZM889.6218107512645 577.4691209633068L889.6218107512645 431.6357880592249L952.1218105672997 431.6357880592249L952.1218105672997 452.4691213312366L912.5384773504774 452.4691213312366L912.5384773504774 491.01078788445824L944.0199587392951 491.01078788445824L944.0199587392951 511.8441211564699L912.5384773504774 511.8441211564699L912.5384773504774 556.635787691295L952.1218105672997 556.635787691295L952.1218105672997 577.4691209633068L889.6218107512645 577.4691209633068ZM965.258384602707 577.4691209633068L965.258384602707 431.6357880592249L1025.877597387241 431.6357880592249L1025.877597387241 452.4691213312366L988.1750512019198 452.4691213312366L988.1750512019198 493.0941212116594L1017.7468103741364 493.0941212116594L1017.7468103741364 513.927454483671L988.1750512019198 513.927454483671L988.1750512019198 577.4691209633068L965.258384602707 577.4691209633068ZM1024.22829183654 577.4691209633068L1047.9551436185534 431.6357880592249L1079.0025972308708 431.6357880592249L1102.758384197984 577.4691209633068L1079.8417175987713 577.4691209633068L1075.6750509443689 548.5050006781905L1075.6750509443689 548.9390284546907L1049.6333843543543 548.9390284546907L1045.466717699952 577.4691209633068L1024.22829183654 577.4691209633068ZM1052.353291753756 529.1473618462796L1072.9551435449673 529.1473618462796L1062.7699583897615 457.04088057703916L1062.3359306132616 457.04088057703916L1052.353291753756 529.1473618462796ZM1113.8116249061902 577.4691209633068L1113.8116249061902 431.6357880592249L1142.5442637105064 431.6357880592249L1164.853291422619 518.9332415059739L1165.2583840140192 518.9332415059739L1165.2583840140192 431.6357880592249L1185.6866246946306 431.6357880592249L1185.6866246946306 577.4691209633068L1162.1333840232173 577.4691209633068L1134.644958178202 471.016574980347L1134.2109304017017 471.016574980347L1134.2109304017017 577.4691209633068L1113.8116249061902 577.4691209633068ZM1235.8891708431588 579.5524542905079Q1219.0199579298492 579.5524542905079 1210.0500505488444 569.9749080224025Q1201.0801431678392 560.3973617542972 1201.0801431678392 542.8915747687872L1201.0801431678392 542.8915747687872L1201.0801431678392 466.2133342537443Q1201.0801431678392 448.7075472682345 1210.0500505488444 439.13000100012914Q1219.0199579298492 429.55245473202376 1235.8891708431588 429.55245473202376L1235.8891708431588 429.55245473202376Q1252.7583837564682 429.55245473202376 1261.7282911374732 439.13000100012914Q1270.6692633333782 448.7075472682345 1270.6692633333782 466.2133342537443L1270.6692633333782 466.2133342537443L1270.6692633333782 542.8915747687872Q1270.6692633333782 560.3973617542972 1261.7282911374732 569.9749080224025Q1252.7583837564682 579.5524542905079 1235.8891708431588 579.5524542905079L1235.8891708431588 579.5524542905079ZM1235.8891708431588 558.7191210184963Q1247.7525967341653 558.7191210184963 1247.7525967341653 544.3383340237881L1247.7525967341653 544.3383340237881L1247.7525967341653 464.76657499874347Q1247.7525967341653 450.3857880040354 1235.8891708431588 450.3857880040354L1235.8891708431588 450.3857880040354Q1223.9968097670521 450.3857880040354 1223.9968097670521 464.76657499874347L1223.9968097670521 464.76657499874347L1223.9968097670521 544.3383340237881Q1223.9968097670521 558.7191210184963 1235.8891708431588 558.7191210184963L1235.8891708431588 558.7191210184963ZM1315.8949576447035 579.5524542905079Q1299.2282910270942 579.5524542905079 1290.6634762374895 570.0617135777024Q1282.1275966329847 560.5999080499972 1282.1275966329847 542.8915747687872L1282.1275966329847 542.8915747687872L1282.1275966329847 534.5582414599826L1303.800050272897 534.5582414599826L1303.800050272897 544.5408803194882Q1303.800050272897 558.7191210184963 1315.6634761639036 558.7191210184963L1315.6634761639036 558.7191210184963Q1321.5083835541068 558.7191210184963 1324.5176428045083 555.2758339915943Q1327.55583724001 551.8325469646923 1327.55583724001 544.135787728088L1327.55583724001 544.135787728088Q1327.55583724001 534.9633340513828 1323.3891705856076 527.989954442279Q1319.2225039312054 521.0165748331751 1307.9667169272993 511.20754708426955L1307.9667169272993 511.20754708426955Q1293.788476228291 498.70754712106253 1288.1750503188882 488.60916752115685Q1282.561624409485 478.51078792125116 1282.561624409485 465.8082416623441L1282.561624409485 465.8082416623441Q1282.561624409485 448.5050009725344 1291.3000503096898 439.04319544482905Q1300.0384762098947 429.55245473202376 1316.705142827504 429.55245473202376L1316.705142827504 429.55245473202376Q1333.1692631494134 429.55245473202376 1341.618337198618 439.04319544482905Q1350.0384760627228 448.5050009725344 1350.0384760627228 466.2133342537443L1350.0384760627228 466.2133342537443L1350.0384760627228 472.2607879396477L1328.3949576079108 472.2607879396477L1328.3949576079108 464.76657499874347Q1328.3949576079108 457.2723620578393 1325.4725039128089 453.82907503093736Q1322.5500502177074 450.3857880040354 1316.9366243083043 450.3857880040354L1316.9366243083043 450.3857880040354Q1305.4782910086979 450.3857880040354 1305.4782910086979 464.33254722224325L1305.4782910086979 464.33254722224325Q1305.4782910086979 472.2607879396477 1309.7317632184004 479.14736199345157Q1314.0141706132026 486.0050008621554 1325.269957617109 495.8140286110609L1325.269957617109 495.8140286110609Q1339.621809426717 508.3140285742679 1345.06162422552 518.4992137294737Q1350.4725038392232 528.7133340697794 1350.4725038392232 542.457546992287L1350.4725038392232 542.457546992287Q1350.4725038392232 560.3973617542972 1341.618337198618 569.9749080224025Q1332.7641705580131 579.5524542905079 1315.8949576447035 579.5524542905079L1315.8949576447035 579.5524542905079ZM1390.8949574239457 577.4691209633068L1414.621809205959 431.6357880592249L1445.6692628182766 431.6357880592249L1469.4250497853898 577.4691209633068L1446.5083831861768 577.4691209633068L1442.3417165317746 548.5050006781905L1442.3417165317746 548.9390284546907L1416.30004994176 548.9390284546907L1412.1333832873577 577.4691209633068L1390.8949574239457 577.4691209633068ZM1419.0199573411617 529.1473618462796L1439.621809132373 529.1473618462796L1429.4366239771673 457.04088057703916L1429.0025962006669 457.04088057703916L1419.0199573411617 529.1473618462796ZM1480.4782904935958 577.4691209633068L1480.4782904935958 431.6357880592249L1509.2109292979121 431.6357880592249L1531.5199570100247 518.9332415059739L1531.925049601425 518.9332415059739L1531.925049601425 431.6357880592249L1552.3532902820364 431.6357880592249L1552.3532902820364 577.4691209633068L1528.800049610623 577.4691209633068L1501.3116237656075 471.016574980347L1500.8775959891075 471.016574980347L1500.8775959891075 577.4691209633068L1480.4782904935958 577.4691209633068ZM1563.3775958051426 577.4691209633068L1587.1333827722558 431.6357880592249L1618.1808363845732 431.6357880592249L1641.9366233516864 577.4691209633068L1619.0199567524735 577.4691209633068L1614.8532900980713 548.5050006781905L1614.8532900980713 548.9390284546907L1588.8116235080568 548.9390284546907L1584.6449568536543 577.4691209633068L1563.3775958051426 577.4691209633068ZM1591.5025957223581 529.1473618462796L1612.13338269867 529.1473618462796L1601.9192623583642 457.04088057703916L1601.514169766964 457.04088057703916L1591.5025957223581 529.1473618462796ZM1685.0500491507107 579.5524542905079Q1668.3833825331014 579.5524542905079 1659.6449566328963 570.0617135777024Q1650.8775955475915 560.5999080499972 1650.8775955475915 542.8915747687872L1650.8775955475915 542.8915747687872L1650.8775955475915 466.2133342537443Q1650.8775955475915 448.5050009725344 1659.6449566328963 439.04319544482905Q1668.3833825331014 429.55245473202376 1685.0500491507107 429.55245473202376L1685.0500491507107 429.55245473202376Q1701.71671576832 429.55245473202376 1710.4551416685251 439.04319544482905Q1719.2225027538298 448.5050009725344 1719.2225027538298 466.2133342537443L1719.2225027538298 466.2133342537443L1719.2225027538298 478.7133342169513L1697.5500491139176 478.7133342169513L1697.5500491139176 464.76657499874347Q1697.5500491139176 450.3857880040354 1685.686623222911 450.3857880040354L1685.686623222911 450.3857880040354Q1673.7942621468044 450.3857880040354 1673.7942621468044 464.76657499874347L1673.7942621468044 464.76657499874347L1673.7942621468044 544.5408803194882Q1673.7942621468044 558.7191210184963 1685.686623222911 558.7191210184963L1685.686623222911 558.7191210184963Q1697.5500491139176 558.7191210184963 1697.5500491139176 544.5408803194882L1697.5500491139176 544.5408803194882L1697.5500491139176 516.0107878108722L1686.0917158143113 516.0107878108722L1686.0917158143113 495.17745453886056L1719.2225027538298 495.17745453886056L1719.2225027538298 542.8915747687872Q1719.2225027538298 560.5999080499972 1710.4551416685251 570.0617135777024Q1701.71671576832 579.5524542905079 1685.0500491507107 579.5524542905079L1685.0500491507107 579.5524542905079ZM1734.008382339938 577.4691209633068L1734.008382339938 431.6357880592249L1762.7699563293543 431.6357880592249L1785.0500488563669 518.9332415059739L1785.4551414477671 518.9332415059739L1785.4551414477671 431.6357880592249L1805.8833821283786 431.6357880592249L1805.8833821283786 577.4691209633068L1782.3301414569653 577.4691209633068L1754.8417156119497 471.016574980347L1754.4366230205494 471.016574980347L1754.4366230205494 577.4691209633068L1734.008382339938 577.4691209633068ZM1856.0859282769068 579.5524542905079Q1839.2167153635971 579.5524542905079 1830.2468079825924 569.9749080224025Q1821.3058357866873 560.3973617542972 1821.3058357866873 542.8915747687872L1821.3058357866873 542.8915747687872L1821.3058357866873 466.2133342537443Q1821.3058357866873 448.7075472682345 1830.2468079825924 439.13000100012914Q1839.2167153635971 429.55245473202376 1856.0859282769068 429.55245473202376L1856.0859282769068 429.55245473202376Q1872.955141190216 429.55245473202376 1881.9250485712212 439.13000100012914Q1890.8949559522264 448.7075472682345 1890.8949559522264 466.2133342537443L1890.8949559522264 466.2133342537443L1890.8949559522264 542.8915747687872Q1890.8949559522264 560.3973617542972 1881.9250485712212 569.9749080224025Q1872.955141190216 579.5524542905079 1856.0859282769068 579.5524542905079L1856.0859282769068 579.5524542905079ZM1856.0859282769068 558.7191210184963Q1867.9782893530135 558.7191210184963 1867.9782893530135 544.3383340237881L1867.9782893530135 544.3383340237881L1867.9782893530135 464.76657499874347Q1867.9782893530135 450.3857880040354 1856.0859282769068 450.3857880040354L1856.0859282769068 450.3857880040354Q1844.2225023859003 450.3857880040354 1844.2225023859003 464.76657499874347L1844.2225023859003 464.76657499874347L1844.2225023859003 544.3383340237881Q1844.2225023859003 558.7191210184963 1856.0859282769068 558.7191210184963L1856.0859282769068 558.7191210184963ZM1936.0917150784514 579.5524542905079Q1919.4250484608422 579.5524542905079 1910.8891688563374 570.0617135777024Q1902.3532892518326 560.5999080499972 1902.3532892518326 542.8915747687872L1902.3532892518326 542.8915747687872L1902.3532892518326 534.5582414599826L1923.9968077066449 534.5582414599826L1923.9968077066449 544.5408803194882Q1923.9968077066449 558.7191210184963 1935.889168782751 558.7191210184963L1935.889168782751 558.7191210184963Q1941.7051409878547 558.7191210184963 1944.743335423356 555.2758339915943Q1947.752594673758 551.8325469646923 1947.752594673758 544.135787728088L1947.752594673758 544.135787728088Q1947.752594673758 534.9633340513828 1943.5859280193556 527.989954442279Q1939.4192613649532 521.0165748331751 1928.1634743610468 511.20754708426955L1928.1634743610468 511.20754708426955Q1914.0141688471392 498.70754712106253 1908.3718077526357 488.60916752115685Q1902.7583818432329 478.51078792125116 1902.7583818432329 465.8082416623441L1902.7583818432329 465.8082416623441Q1902.7583818432329 448.5050009725344 1911.4968077434376 439.04319544482905Q1920.2641688287424 429.55245473202376 1936.9308354463521 429.55245473202376L1936.9308354463521 429.55245473202376Q1953.394955768261 429.55245473202376 1961.815094632366 439.04319544482905Q1970.2641686815707 448.5050009725344 1970.2641686815707 466.2133342537443L1970.2641686815707 466.2133342537443L1970.2641686815707 472.2607879396477L1948.5917150416583 472.2607879396477L1948.5917150416583 464.76657499874347Q1948.5917150416583 457.2723620578393 1945.6692613465568 453.82907503093736Q1942.7468076514554 450.3857880040354 1937.133381742052 450.3857880040354L1937.133381742052 450.3857880040354Q1925.6750484424458 450.3857880040354 1925.6750484424458 464.33254722224325L1925.6750484424458 464.33254722224325Q1925.6750484424458 472.2607879396477 1929.957455837248 479.14736199345157Q1934.2109280469501 486.0050008621554 1945.4667150508565 495.8140286110609L1945.4667150508565 495.8140286110609Q1959.8475020455646 508.3140285742679 1965.258381659268 518.4992137294737Q1970.669261272971 528.7133340697794 1970.669261272971 542.457546992287L1970.669261272971 542.457546992287Q1970.669261272971 560.3973617542972 1961.815094632366 569.9749080224025Q1952.960927991761 579.5524542905079 1936.0917150784514 579.5524542905079L1936.0917150784514 579.5524542905079ZM2001.716714885288 577.4691209633068L2001.716714885288 452.4691213312366L1977.7583816224749 452.4691213312366L1977.7583816224749 431.6357880592249L2048.5917147473147 431.6357880592249L2048.5917147473147 452.4691213312366L2024.633381484501 452.4691213312366L2024.633381484501 577.4691209633068L2001.716714885288 577.4691209633068ZM2091.9366220271386 579.5524542905079Q2075.038473928729 579.5524542905079 2066.0975017328246 569.9749080224025Q2057.1275943518194 560.3973617542972 2057.1275943518194 542.8915747687872L2057.1275943518194 542.8915747687872L2057.1275943518194 466.2133342537443Q2057.1275943518194 448.7075472682345 2066.0975017328246 439.13000100012914Q2075.038473928729 429.55245473202376 2091.9366220271386 429.55245473202376L2091.9366220271386 429.55245473202376Q2108.805834940448 429.55245473202376 2117.7468071363537 439.13000100012914Q2126.716714517358 448.7075472682345 2126.716714517358 466.2133342537443L2126.716714517358 466.2133342537443L2126.716714517358 542.8915747687872Q2126.716714517358 560.3973617542972 2117.7468071363537 569.9749080224025Q2108.805834940448 579.5524542905079 2091.9366220271386 579.5524542905079L2091.9366220271386 579.5524542905079ZM2091.9366220271386 558.7191210184963Q2103.8000479181455 558.7191210184963 2103.8000479181455 544.3383340237881L2103.8000479181455 544.3383340237881L2103.8000479181455 464.76657499874347Q2103.8000479181455 450.3857880040354 2091.9366220271386 450.3857880040354L2091.9366220271386 450.3857880040354Q2080.044260951032 450.3857880040354 2080.044260951032 464.76657499874347L2080.044260951032 464.76657499874347L2080.044260951032 544.3383340237881Q2080.044260951032 558.7191210184963 2091.9366220271386 558.7191210184963L2091.9366220271386 558.7191210184963ZM2175.4725014108853 579.5524542905079Q2158.8058347932765 579.5524542905079 2150.038473707971 570.0617135777024Q2141.3000478077665 560.5999080499972 2141.3000478077665 542.8915747687872L2141.3000478077665 542.8915747687872L2141.3000478077665 431.6357880592249L2164.216714406979 431.6357880592249L2164.216714406979 544.5408803194882Q2164.216714406979 552.0640284454925 2167.2259736573815 555.3915747319943Q2170.2641680928828 558.7191210184963 2175.877594002286 558.7191210184963L2175.877594002286 558.7191210184963Q2181.519955096789 558.7191210184963 2184.5292143471906 555.3915747319943Q2187.538473597592 552.0640284454925 2187.538473597592 544.5408803194882L2187.538473597592 544.5408803194882L2187.538473597592 431.6357880592249L2209.644955014005 431.6357880592249L2209.644955014005 542.8915747687872Q2209.644955014005 560.5999080499972 2200.8775939286998 570.0617135777024Q2192.139168028495 579.5524542905079 2175.4725014108853 579.5524542905079L2175.4725014108853 579.5524542905079Z " fill="#ffffff" transform="matrix(0.395991231927102,0,0,0.395991231927102,0,100.20164814119403)"/></g></svg>