<svg xmlns="http://www.w3.org/2000/svg" version="1.1" xmlns:xlink="http://www.w3.org/1999/xlink" xmlns:svgjs="http://svgjs.dev/svgjs" width="100%" height="100%" viewBox="0 0 1000 600"><rect width="1000" height="600" x="0" y="0" fill="#ffd700"/><g><rect width="333.3333333333333" height="333.3333333333333" rx="13.333333333333334" ry="13.333333333333334" y="348.50345945019194" fill="#000000" transform="matrix(0.38310508994738435,0,0,0.3831050899473843,0,102.63570062967142)" x="326.2811584472657"/><path d="M420.47558506961144 590.170140057988Q405.95191521949715 590.170140057988 394.4674036478776 585.0269491251506Q383.01211475201285 579.8837581923135 376.495458058702 570.7078380053197Q369.9788013653912 561.5611404940807 369.7450199593531 549.5798434346302L369.7450199593531 549.5798434346302L390.1716703119283 549.5798434346302Q391.2236866390996 559.8954479760596 398.6754689565626 566.938112832956Q406.1564739497805 573.9807776898524 420.47558506961144 573.9807776898524L420.47558506961144 573.9807776898524Q434.1517973228378 573.9807776898524 442.0419197766222 567.1426715632392Q449.9320422304066 560.3045654366261 449.9320422304066 549.5798434346302L449.9320422304066 549.5798434346302Q449.9320422304066 541.1637128172603 445.28563678540024 535.903631181404Q440.6684540161486 530.6435495455477 433.71345718651645 527.8966180246005Q426.787683032639 525.178909179408 414.9817220277171 522.0228601978943L414.9817220277171 522.0228601978943Q400.4872748533576 518.2239123497759 391.7496948026852 514.4249645016575Q383.01211475201285 510.6552393292938 376.8169074920043 502.5605581452261Q370.592477556241 494.4366542854036 370.592477556241 480.7604420321773L370.592477556241 480.7604420321773Q370.592477556241 468.7791449727269 376.7000167889853 459.51555675846885Q382.8075560217295 450.25196854421085 393.85372745702773 445.22566831439264Q404.8998988923259 440.1701454088197 419.18978733640216 440.1701454088197L419.18978733640216 440.1701454088197Q439.82099641926067 440.1701454088197 452.97120050890135 450.48574995024893Q466.12140459854203 460.7721318159234 467.816319792318 477.83817445670155L467.816319792318 477.83817445670155L446.77599324889286 477.83817445670155Q445.7239769217216 469.4220438393315 437.92152249520143 462.993055173285Q430.14829074443605 456.5640665072384 417.31953608809766 456.5640665072384L417.31953608809766 456.5640665072384Q405.3090163528925 456.5640665072384 397.7403433324104 462.78849644300163Q390.1716703119283 468.9837037030102 390.1716703119283 480.1467658413274L390.1716703119283 480.1467658413274Q390.1716703119283 488.12455632237607 394.70118505391565 493.1800792279491Q399.20147712014824 498.23560213352204 405.83502451647814 500.8656429514502Q412.468571912808 503.49568376937833 424.4498689722584 506.8562914811754L424.4498689722584 506.8562914811754Q438.9735388223727 510.8597980595771 447.82800957606406 514.7464139349597Q456.65325765400075 518.6330298103426 462.96535561702825 526.7569336701649Q469.2774535800558 534.8516148542327 469.2774535800558 548.7323858377424L469.2774535800558 548.7323858377424Q469.2774535800558 559.4571078397382 463.60825448363295 568.9252547842796Q457.9098327114553 578.3934017288209 446.77599324889286 584.2963822312818Q435.61293111057563 590.170140057988 420.47558506961144 590.170140057988L420.47558506961144 590.170140057988ZM595.9285303011732 588.70900627025L584.1517919720061 556.0965001279411L520.1833547448427 556.0965001279411L508.4066164156756 588.70900627025L488.21374746913847 588.70900627025L541.2236812882677 442.8878542540121L563.3160241588641 442.8878542540121L616.150621923465 588.70900627025L595.9285303011732 588.70900627025ZM525.677217786737 540.5208139506556L578.6871516058663 540.5208139506556L552.1821846963016 466.47055358810104L525.677217786737 540.5208139506556Z " fill="#ffd700" transform="matrix(0.38310508994738435,0,0,0.3831050899473843,0,102.63570062967142)"/><path d="M777.9243130108622 552.0103100720576Q767.9108807669594 552.0103100720576 759.9928146264084 548.4643058971544Q752.0948962368512 544.9183017222512 747.6019477652409 538.591907910208Q743.1089992936305 532.2856618491585 742.9478172856803 524.0250839417133L742.9478172856803 524.0250839417133L757.0310952303245 524.0250839417133Q757.7564142661 531.1372400425137 762.8940907695111 535.9928480320118Q768.0519150239157 540.84845602151 777.9243130108622 540.84845602151L777.9243130108622 540.84845602151Q787.3534604759458 540.84845602151 792.7933532442634 536.1338822889682Q798.2332460125807 531.4193085564264 798.2332460125807 524.0250839417133L798.2332460125807 524.0250839417133Q798.2332460125807 518.2225316555081 795.0297536045716 514.5959364766297Q791.8464089475561 510.96934129775144 787.0512442110393 509.07545270433724Q782.2762272255162 507.20171186191675 774.1365358240338 505.02575475458974L774.1365358240338 505.02575475458974Q764.1432513311246 502.40654712539987 758.1190737839879 499.78733949621Q752.0948962368512 497.1882796180139 747.8235730261723 491.60735259274Q743.5321020644996 486.0062778164724 743.5321020644996 476.5771303513888L743.5321020644996 476.5771303513888Q743.5321020644996 468.31655244394375 747.7429820221972 461.9297153789192Q751.9538619798948 455.5428783138946 759.5697118555393 452.07746514296645Q767.1855617311837 448.59190422104456 777.0378119671365 448.59190422104456L777.0378119671365 448.59190422104456Q791.2621241687369 448.59190422104456 800.3286121159327 455.7040603218448Q809.3951000631284 462.7960686716512 810.563669620767 474.56235525201197L810.563669620767 474.56235525201197L796.0572889052538 474.56235525201197Q795.3319698694781 468.75980296580667 789.9525203541419 464.3272977471776Q784.5932185897996 459.8947925285486 775.7483559035353 459.8947925285486L775.7483559035353 459.8947925285486Q767.4676302450965 459.8947925285486 762.2493627377104 464.1862634902213Q757.0310952303245 468.45758670090015 757.0310952303245 476.15402758051965L757.0310952303245 476.15402758051965Q757.0310952303245 481.65436360181843 760.1539966343586 485.1399245237404Q763.2567502873989 488.6254854456623 767.8302897629843 490.43878303510144Q772.4038292385698 492.2520806245406 780.6644071460147 494.56907198882396L780.6644071460147 494.56907198882396Q790.6778393899176 497.32931387497024 796.7826079410295 500.0089647571414Q802.8672287411475 502.6886156393126 807.2191429558014 508.28969041558025Q811.5710571704554 513.8706174408542 811.5710571704554 523.4407991628941L811.5710571704554 523.4407991628941Q811.5710571704554 530.8350237776071 807.6623934776644 537.3628950995881Q803.7335820338795 543.890766421569 796.0572889052538 547.9606121223103Q788.3608480256343 552.0103100720576 777.9243130108622 552.0103100720576L777.9243130108622 552.0103100720576ZM867.8638734470443 482.3796826375941L847.1116899234629 482.3796826375941L847.1116899234629 529.2433514490995Q847.1116899234629 535.0459037353046 849.5697155447026 537.4434861035631Q852.0478889169361 539.8410684718215 858.1325097170542 539.8410684718215L858.1325097170542 539.8410684718215L867.8638734470443 539.8410684718215L867.8638734470443 551.0029225223693L855.9565526097272 551.0029225223693Q844.9357328161359 551.0029225223693 839.4152490438433 545.9256892719395Q833.9149130225446 540.84845602151 833.9149130225446 529.2433514490995L833.9149130225446 529.2433514490995L833.9149130225446 482.3796826375941L823.619412264729 482.3796826375941L823.619412264729 471.4998971009592L833.9149130225446 471.4998971009592L833.9149130225446 451.4931803641472L847.1116899234629 451.4931803641472L847.1116899234629 471.4998971009592L867.8638734470443 471.4998971009592L867.8638734470443 482.3796826375941ZM956.352795811675 508.2090994116052Q956.352795811675 511.97672884743986 955.9095452898122 516.1876088051374L955.9095452898122 516.1876088051374L892.3635386554668 516.1876088051374Q893.0888576912423 527.9337476345045 900.4226390529741 534.5422099604605Q907.7564204147058 541.1305245354226 918.1929554294777 541.1305245354226L918.1929554294777 541.1305245354226Q926.7557496018293 541.1305245354226 932.4777108840595 537.1412698386566Q938.2198199172835 533.1520151418904 940.5368112815669 526.4831095629531L940.5368112815669 526.4831095629531L954.7409757321736 526.4831095629531Q951.5576310751583 537.9471798784073 941.9874493531182 545.1197792321889Q932.4172676310782 552.3125263369642 918.1929554294777 552.3125263369642L918.1929554294777 552.3125263369642Q906.8699193709799 552.3125263369642 897.9646134317343 547.2352930865345Q889.0391597414949 542.1580598361049 883.9619264910652 532.7893556240026Q878.8846932406357 523.4407991628941 878.8846932406357 511.11037555470784L878.8846932406357 511.11037555470784Q878.8846932406357 498.7799519465216 883.8208922341089 489.49183873839434Q888.7369434765883 480.20372553026715 897.6623971668278 475.20708328381255Q906.5878508570672 470.210441037358 918.1929554294777 470.210441037358L918.1929554294777 470.210441037358Q929.5159914879756 470.210441037358 938.2198199172835 475.12649227983746Q946.9236483465914 480.06269127331075 951.6382220791334 488.70607644963735Q956.352795811675 497.32931387497024 956.352795811675 508.2090994116052L956.352795811675 508.2090994116052ZM942.7127683888939 505.4488575254589Q942.7127683888939 497.9135986537895 939.3682417239283 492.47370588547204Q936.0438628099565 487.0338131171546 930.3017537767325 484.1929802270333Q924.5797924945024 481.3722950879057 917.6086706506585 481.3722950879057L917.6086706506585 481.3722950879057Q907.5952384067556 481.3722950879057 900.5636733099304 487.75913215293025Q893.5321082131053 494.1459692179548 892.5247206634168 505.4488575254589L892.5247206634168 505.4488575254589L942.7127683888939 505.4488575254589ZM1006.0975930152892 471.4998971009592L1006.0975930152892 482.3796826375941L989.415255192449 482.3796826375941L989.415255192449 551.0029225223693L976.2184782915307 551.0029225223693L976.2184782915307 482.3796826375941L965.9229775337151 482.3796826375941L965.9229775337151 471.4998971009592L976.2184782915307 471.4998971009592L976.2184782915307 465.85852682270405Q976.2184782915307 452.5005679138356 983.1090091313995 446.33535610974246Q989.9995399712683 440.17014430564933 1005.2312397225572 440.17014430564933L1005.2312397225572 440.17014430564933L1005.2312397225572 451.19096409924066Q996.5274112932493 451.19096409924066 992.9814071183459 454.61608176818123Q989.415255192449 458.02105168612815 989.415255192449 465.85852682270405L989.415255192449 465.85852682270405L989.415255192449 471.4998971009592L1006.0975930152892 471.4998971009592ZM1016.5542757810551 510.96934129775144Q1016.5542757810551 498.7799519465216 1021.4703270235345 489.5724297423694Q1026.4065260170078 480.36490753821727 1035.0499111933345 475.28767428778764Q1043.6731486186673 470.210441037358 1054.2708656413893 470.210441037358L1054.2708656413893 470.210441037358Q1064.7074006561616 470.210441037358 1072.4038415357809 474.70338950896837Q1080.0801346644066 479.1963379805787 1083.8477641002414 486.0062778164724L1083.8477641002414 486.0062778164724L1083.8477641002414 471.4998971009592L1097.20572300911 471.4998971009592L1097.20572300911 551.0029225223693L1083.8477641002414 551.0029225223693L1083.8477641002414 536.2144732929432Q1079.9391004074505 543.1654473857934 1072.1822162748495 547.7389868613787Q1064.4253321422484 552.3125263369642 1054.109683633439 552.3125263369642L1054.109683633439 552.3125263369642Q1043.5321143617107 552.3125263369642 1034.9693201893592 547.0942588295782Q1026.4065260170078 541.8558435711984 1021.4703270235345 532.4266961061148Q1016.5542757810551 522.9975486410312 1016.5542757810551 510.96934129775144L1016.5542757810551 510.96934129775144ZM1083.8477641002414 511.11037555470784Q1083.8477641002414 502.1244786114871 1080.2211689213632 495.43542528155604Q1076.5945737424845 488.76651970261867 1070.4293619383916 485.22051552771546Q1064.2641501342987 481.65436360181843 1056.8699255195856 481.65436360181843L1056.8699255195856 481.65436360181843Q1049.4757009048726 481.65436360181843 1043.3910801047546 485.1399245237404Q1037.2863115536425 488.6254854456623 1033.6597163747642 495.29439102459963Q1030.033121195886 501.963296603537 1030.033121195886 510.96934129775144L1030.033121195886 510.96934129775144Q1030.033121195886 520.0962724979286 1033.6597163747642 526.8457690808409Q1037.2863115536425 533.5952656637534 1043.3910801047546 537.1412698386566Q1049.4757009048726 540.7074217645536 1056.8699255195856 540.7074217645536L1056.8699255195856 540.7074217645536Q1064.2641501342987 540.7074217645536 1070.4293619383916 537.1412698386566Q1076.5945737424845 533.5952656637534 1080.2211689213632 526.8457690808409Q1083.8477641002414 520.0962724979286 1083.8477641002414 511.11037555470784L1083.8477641002414 511.11037555470784ZM1158.2735562712219 470.04925902940784Q1172.7799369867348 470.04925902940784 1181.7658339299555 478.8336784626909Q1190.7718786241703 487.6180978959739 1190.7718786241703 504.13925371086395L1190.7718786241703 504.13925371086395L1190.7718786241703 551.0029225223693L1177.716135980208 551.0029225223693L1177.716135980208 506.0331423042782Q1177.716135980208 494.1459692179548 1171.7725494370466 487.81957540591156Q1165.808815142891 481.51332934486203 1155.5133143850753 481.51332934486203L1155.5133143850753 481.51332934486203Q1145.0767793703035 481.51332934486203 1138.9115675662101 488.04120066684305Q1132.7463557621172 494.56907198882396 1132.7463557621172 507.04052985396663L1132.7463557621172 507.04052985396663L1132.7463557621172 551.0029225223693L1119.5495788611988 551.0029225223693L1119.5495788611988 471.4998971009592L1132.7463557621172 471.4998971009592L1132.7463557621172 482.822933159457Q1136.6550194549081 476.738312359339 1143.404516037821 473.3937856943734Q1150.1540126207333 470.04925902940784 1158.2735562712219 470.04925902940784L1158.2735562712219 470.04925902940784ZM1247.044547149765 552.3125263369642Q1235.8826930992177 552.3125263369642 1226.8162051520217 547.2352930865345Q1217.749717204826 542.1580598361049 1212.5918929504214 532.7893556240026Q1207.4542164470104 523.4407991628941 1207.4542164470104 511.11037555470784L1207.4542164470104 511.11037555470784Q1207.4542164470104 498.920986203478 1212.7530749583716 489.5724297423694Q1218.0317857187388 480.20372553026715 1227.1788646699097 475.20708328381255Q1236.3259436210806 470.210441037358 1247.6288319285845 470.210441037358L1247.6288319285845 470.210441037358Q1258.9518679870826 470.210441037358 1268.0787991872594 475.20708328381255Q1277.2258781384303 480.20372553026715 1282.5247366497915 489.49183873839434Q1287.8235951611528 498.7799519465216 1287.8235951611528 511.11037555470784L1287.8235951611528 511.11037555470784Q1287.8235951611528 523.4407991628941 1282.383702392835 532.7893556240026Q1276.9438096245176 542.1580598361049 1267.6556964163901 547.2352930865345Q1258.367583208263 552.3125263369642 1247.044547149765 552.3125263369642L1247.044547149765 552.3125263369642ZM1247.044547149765 540.7074217645536Q1254.1567032505654 540.7074217645536 1260.4025060586337 537.3628950995881Q1266.6281611157083 534.0385161856162 1270.476381555518 527.3494628556851Q1274.3246019953276 520.6805572767478 1274.3246019953276 511.11037555470784L1274.3246019953276 511.11037555470784Q1274.3246019953276 501.54019383266785 1270.5569725594933 494.8712882537305Q1266.7893431236585 488.1822349237994 1260.6845745725464 484.91829926280894Q1254.5999537724283 481.65436360181843 1247.4877976716284 481.65436360181843L1247.4877976716284 481.65436360181843Q1240.2346073138715 481.65436360181843 1234.2104297667347 484.91829926280894Q1228.186252219598 488.1822349237994 1224.5596570407197 494.8712882537305Q1220.9330618618415 501.54019383266785 1220.9330618618415 511.11037555470784L1220.9330618618415 511.11037555470784Q1220.9330618618415 520.8215915337041 1224.4992137877384 527.5106448636353Q1228.0452179626418 534.1795504425727 1233.9888045058033 537.4434861035631Q1239.9525387999588 540.7074217645536 1247.044547149765 540.7074217645536L1247.044547149765 540.7074217645536ZM1333.357512407069 552.3125263369642Q1324.230581206892 552.3125263369642 1316.9773908491352 549.1896249329301Q1309.7242004913787 546.066723528896 1305.513320533681 540.4857965036222Q1301.3024405759838 534.9048694783482 1300.8793378051146 527.6516791205917L1300.8793378051146 527.6516791205917L1314.4992174769018 527.6516791205917Q1315.0835022557212 533.5952656637534 1320.1002922531693 537.3628950995881Q1325.0969344996242 541.1305245354226 1333.2164781501128 541.1305245354226L1333.2164781501128 541.1305245354226Q1340.771884772776 541.1305245354226 1345.1237989874298 537.8061456214509Q1349.4757132020836 534.4616189564854 1349.4757132020836 529.3843857060558L1349.4757132020836 529.3843857060558Q1349.4757132020836 524.1661181986697 1344.821582722523 521.627501573455Q1340.1875999939566 519.0888849482401 1330.4562362639663 516.6308593270003L1330.4562362639663 516.6308593270003Q1321.6113735777021 514.2937202117232 1316.0304465524282 511.91628559445854Q1310.4495195271543 509.5187032262001 1306.4602648303885 504.8041294936583Q1302.4710101336223 500.0895557611165 1302.4710101336223 492.393114881497L1302.4710101336223 492.393114881497Q1302.4710101336223 486.3084940813789 1306.0976053125005 481.2312608309493Q1309.7242004913787 476.15402758051965 1316.3931060703162 473.17216043344195Q1323.0620116492532 470.210441037358 1331.6248058216052 470.210441037358L1331.6248058216052 470.210441037358Q1344.821582722523 470.210441037358 1352.9411263730121 476.8793466162953Q1361.0808177744943 483.5482521952327 1361.6449548023197 495.1533567676433L1361.6449548023197 495.1533567676433L1348.4481779014018 495.1533567676433Q1348.0250751305325 488.90755395957507 1343.4515356549468 485.1399245237404Q1338.8779961793616 481.3722950879057 1331.1815552997423 481.3722950879057L1331.1815552997423 481.3722950879057Q1324.0895469499355 481.3722950879057 1319.8786669922379 484.4146054879647Q1315.6677870345407 487.45691588802373 1315.6677870345407 492.393114881497L1315.6677870345407 492.393114881497Q1315.6677870345407 496.3219263252818 1318.2064036597553 498.86054295049667Q1320.74502028497 501.39915957571145 1324.5932407247797 502.9102409002441Q1328.4414611645898 504.4414699757705 1335.2514010004834 506.31521081819096L1335.2514010004834 506.31521081819096Q1343.8141951728348 508.6523499334681 1349.1734969371773 510.88875029377635Q1354.5529464525134 513.1452984050784 1358.3810191413295 517.6382468766888Q1362.2292395811392 522.1311953482991 1362.3702738380957 529.3843857060558L1362.3702738380957 529.3843857060558Q1362.3702738380957 535.9122570280367 1358.7436786592175 541.1305245354226Q1355.1170834803388 546.3689397938025 1348.5287689053766 549.3306591898865Q1341.9203065794204 552.3125263369642 1333.357512407069 552.3125263369642L1333.357512407069 552.3125263369642ZM1487.5683985133724 551.0029225223693L1479.4488548628838 528.5180324133237L1435.3454279375246 528.5180324133237L1427.225884287036 551.0029225223693L1413.303788350342 551.0029225223693L1449.851808653038 450.465645063465L1465.083508404327 450.465645063465L1501.4904944500663 551.0029225223693L1487.5683985133724 551.0029225223693ZM1439.1130573733594 517.7792811336451L1475.681225427049 517.7792811336451L1457.3870675247072 466.72488011543606L1439.1130573733594 517.7792811336451ZM1556.1916383981475 470.04925902940784Q1570.6980191136608 470.04925902940784 1579.6839160568811 478.8336784626909Q1588.6698130001023 487.6180978959739 1588.6698130001023 504.13925371086395L1588.6698130001023 504.13925371086395L1588.6698130001023 551.0029225223693L1575.61407035614 551.0029225223693L1575.61407035614 506.0331423042782Q1575.61407035614 494.1459692179548 1569.6704838129785 487.81957540591156Q1563.7268972698166 481.51332934486203 1553.4313965120014 481.51332934486203L1553.4313965120014 481.51332934486203Q1542.9747137462355 481.51332934486203 1536.809501942142 488.04120066684305Q1530.6442901380492 494.56907198882396 1530.6442901380492 507.04052985396663L1530.6442901380492 507.04052985396663L1530.6442901380492 551.0029225223693L1517.4475132371308 551.0029225223693L1517.4475132371308 471.4998971009592L1530.6442901380492 471.4998971009592L1530.6442901380492 482.822933159457Q1534.5731015818342 476.738312359339 1541.3225981647465 473.3937856943734Q1548.0519469966653 470.04925902940784 1556.1916383981475 470.04925902940784L1556.1916383981475 470.04925902940784ZM1605.3521508229423 510.96934129775144Q1605.3521508229423 498.7799519465216 1610.2883498164156 489.5724297423694Q1615.2245488098888 480.36490753821727 1623.8477862352215 475.28767428778764Q1632.4911714115483 470.210441037358 1643.0687406832767 470.210441037358L1643.0687406832767 470.210441037358Q1653.5254234490426 470.210441037358 1661.2017165776683 474.70338950896837Q1668.8981574572877 479.1963379805787 1672.6657868931225 486.0062778164724L1672.6657868931225 486.0062778164724L1672.6657868931225 471.4998971009592L1686.023745801991 471.4998971009592L1686.023745801991 551.0029225223693L1672.6657868931225 551.0029225223693L1672.6657868931225 536.2144732929432Q1668.7571232003315 543.1654473857934 1661.0002390677305 547.7389868613787Q1653.2232071841358 552.3125263369642 1642.9277064263201 552.3125263369642L1642.9277064263201 552.3125263369642Q1632.3501371545922 552.3125263369642 1623.7873429822403 547.0942588295782Q1615.2245488098888 541.8558435711984 1610.2883498164156 532.4266961061148Q1605.3521508229423 522.9975486410312 1605.3521508229423 510.96934129775144L1605.3521508229423 510.96934129775144ZM1672.6657868931225 511.11037555470784Q1672.6657868931225 502.1244786114871 1669.0391917142442 495.43542528155604Q1665.412596535366 488.76651970261867 1659.2473847312726 485.22051552771546Q1653.0821729271797 481.65436360181843 1645.6879483124667 481.65436360181843L1645.6879483124667 481.65436360181843Q1638.2937236977536 481.65436360181843 1632.188955146642 485.1399245237404Q1626.104334346524 488.6254854456623 1622.4777391676453 495.29439102459963Q1618.851143988767 501.963296603537 1618.851143988767 510.96934129775144L1618.851143988767 510.96934129775144Q1618.851143988767 520.0962724979286 1622.4777391676453 526.8457690808409Q1626.104334346524 533.5952656637534 1632.188955146642 537.1412698386566Q1638.2937236977536 540.7074217645536 1645.6879483124667 540.7074217645536L1645.6879483124667 540.7074217645536Q1653.0821729271797 540.7074217645536 1659.2473847312726 537.1412698386566Q1665.412596535366 533.5952656637534 1669.0391917142442 526.8457690808409Q1672.6657868931225 520.0962724979286 1672.6657868931225 511.11037555470784L1672.6657868931225 511.11037555470784ZM1741.1479925209414 470.210441037358Q1751.4434932787567 470.210441037358 1759.2003774113577 474.70338950896837Q1766.9572615439588 479.1963379805787 1770.7248909797931 486.0062778164724L1770.7248909797931 486.0062778164724L1770.7248909797931 471.4998971009592L1784.0828498886617 471.4998971009592L1784.0828498886617 552.7356291078333Q1784.0828498886617 563.6154146444683 1779.4287194091012 572.1177655638385Q1774.7947366805347 580.5999687322151 1766.1714992552015 585.3749857177381Q1757.5281140788752 590.170150454255 1746.0640437634206 590.170150454255L1746.0640437634206 590.170150454255Q1730.4092412412629 590.170150454255 1719.952558475497 582.775925839542Q1709.5160234607247 575.3817012248289 1707.6221348673107 562.6080270947798L1707.6221348673107 562.6080270947798L1720.6778775112725 562.6080270947798Q1722.8538346185996 569.8612174525365 1729.6839222054869 574.2937226711656Q1736.493862041381 578.7060801388009 1746.0640437634206 578.7060801388009L1746.0640437634206 578.7060801388009Q1756.9438293000558 578.7060801388009 1763.8343601399242 571.896140302907Q1770.7248909797931 565.0660527160196 1770.7248909797931 552.7356291078333L1770.7248909797931 552.7356291078333L1770.7248909797931 536.0532912849931Q1766.8162272870022 543.024413128837 1759.1197864073824 547.6583958574038Q1751.4434932787567 552.3125263369642 1741.1479925209414 552.3125263369642L1741.1479925209414 552.3125263369642Q1730.550275498219 552.3125263369642 1721.9270380728863 547.0942588295782Q1713.2836528965595 541.8558435711984 1708.3474539030863 532.4266961061148Q1703.4314026606066 522.9975486410312 1703.4314026606066 510.96934129775144L1703.4314026606066 510.96934129775144Q1703.4314026606066 498.7799519465216 1708.3474539030863 489.5724297423694Q1713.2836528965595 480.36490753821727 1721.9270380728863 475.28767428778764Q1730.550275498219 470.210441037358 1741.1479925209414 470.210441037358L1741.1479925209414 470.210441037358ZM1770.7248909797931 511.11037555470784Q1770.7248909797931 502.1244786114871 1767.098295800915 495.43542528155604Q1763.4717006220367 488.76651970261867 1757.3064888179433 485.22051552771546Q1751.1412770138504 481.65436360181843 1743.7470523991374 481.65436360181843L1743.7470523991374 481.65436360181843Q1736.3528277844243 481.65436360181843 1730.2682069843063 485.1399245237404Q1724.1634384331946 488.6254854456623 1720.5368432543164 495.29439102459963Q1716.9102480754377 501.963296603537 1716.9102480754377 510.96934129775144L1716.9102480754377 510.96934129775144Q1716.9102480754377 520.0962724979286 1720.5368432543164 526.8457690808409Q1724.1634384331946 533.5952656637534 1730.2682069843063 537.1412698386566Q1736.3528277844243 540.7074217645536 1743.7470523991374 540.7074217645536L1743.7470523991374 540.7074217645536Q1751.1412770138504 540.7074217645536 1757.3064888179433 537.1412698386566Q1763.4717006220367 533.5952656637534 1767.098295800915 526.8457690808409Q1770.7248909797931 520.0962724979286 1770.7248909797931 511.11037555470784L1770.7248909797931 511.11037555470784ZM1845.1506831507736 470.04925902940784Q1859.657063866287 470.04925902940784 1868.6429608095077 478.8336784626909Q1877.649005503722 487.6180978959739 1877.649005503722 504.13925371086395L1877.649005503722 504.13925371086395L1877.649005503722 551.0029225223693L1864.5932628597602 551.0029225223693L1864.5932628597602 506.0331423042782Q1864.5932628597602 494.1459692179548 1858.6496763165987 487.81957540591156Q1852.6859420224432 481.51332934486203 1842.3904412646275 481.51332934486203L1842.3904412646275 481.51332934486203Q1831.9539062498557 481.51332934486203 1825.7886944457623 488.04120066684305Q1819.623482641669 494.56907198882396 1819.623482641669 507.04052985396663L1819.623482641669 507.04052985396663L1819.623482641669 551.0029225223693L1806.426705740751 551.0029225223693L1806.426705740751 471.4998971009592L1819.623482641669 471.4998971009592L1819.623482641669 482.822933159457Q1823.5321463344603 476.738312359339 1830.2816429173727 473.3937856943734Q1837.031139500285 470.04925902940784 1845.1506831507736 470.04925902940784L1845.1506831507736 470.04925902940784ZM1933.9216740293173 552.3125263369642Q1922.7598199787694 552.3125263369642 1913.6933320315738 547.2352930865345Q1904.6268440843778 542.1580598361049 1899.4690198299736 532.7893556240026Q1894.3313433265625 523.4407991628941 1894.3313433265625 511.11037555470784L1894.3313433265625 511.11037555470784Q1894.3313433265625 498.920986203478 1899.6302018379233 489.5724297423694Q1904.908912598291 480.20372553026715 1914.0559915494619 475.20708328381255Q1923.2030705006323 470.210441037358 1934.5059588081367 470.210441037358L1934.5059588081367 470.210441037358Q1945.8289948666343 470.210441037358 1954.9559260668116 475.20708328381255Q1964.1030050179825 480.20372553026715 1969.4018635293437 489.49183873839434Q1974.7007220407045 498.7799519465216 1974.7007220407045 511.11037555470784L1974.7007220407045 511.11037555470784Q1974.7007220407045 523.4407991628941 1969.2608292723871 532.7893556240026Q1963.8209365040693 542.1580598361049 1954.5328232959423 547.2352930865345Q1945.2447100878153 552.3125263369642 1933.9216740293173 552.3125263369642L1933.9216740293173 552.3125263369642ZM1933.9216740293173 540.7074217645536Q1941.0338301301176 540.7074217645536 1947.2796329381858 537.3628950995881Q1953.50528799526 534.0385161856162 1957.3535084350701 527.3494628556851Q1961.2017288748798 520.6805572767478 1961.2017288748798 511.11037555470784L1961.2017288748798 511.11037555470784Q1961.2017288748798 501.54019383266785 1957.434099439045 494.8712882537305Q1953.6664700032102 488.1822349237994 1947.5617014520985 484.91829926280894Q1941.4770806519805 481.65436360181843 1934.3649245511801 481.65436360181843L1934.3649245511801 481.65436360181843Q1927.1117341934237 481.65436360181843 1921.0875566462869 484.91829926280894Q1915.06337909915 488.1822349237994 1911.4367839202714 494.8712882537305Q1907.8101887413932 501.54019383266785 1907.8101887413932 511.11037555470784L1907.8101887413932 511.11037555470784Q1907.8101887413932 520.8215915337041 1911.3763406672906 527.5106448636353Q1914.9223448421935 534.1795504425727 1920.8659313853555 537.4434861035631Q1926.829665679511 540.7074217645536 1933.9216740293173 540.7074217645536L1933.9216740293173 540.7074217645536ZM2020.2346392866207 552.3125263369642Q2011.1077080864438 552.3125263369642 2003.8545177286874 549.1896249329301Q1996.601327370931 546.066723528896 1992.3904474132332 540.4857965036222Q1988.1795674555356 534.9048694783482 1987.7564646846668 527.6516791205917L1987.7564646846668 527.6516791205917L2001.376344356454 527.6516791205917Q2001.960629135273 533.5952656637534 2006.9774191327215 537.3628950995881Q2011.974061379176 541.1305245354226 2020.0936050296646 541.1305245354226L2020.0936050296646 541.1305245354226Q2027.6490116523278 541.1305245354226 2032.0009258669816 537.8061456214509Q2036.3528400816353 534.4616189564854 2036.3528400816353 529.3843857060558L2036.3528400816353 529.3843857060558Q2036.3528400816353 524.1661181986697 2031.6987096020753 521.627501573455Q2027.0647268735083 519.0888849482401 2017.3333631435185 516.6308593270003L2017.3333631435185 516.6308593270003Q2008.4885004572543 514.2937202117232 2002.9075734319804 511.91628559445854Q1997.3266464067065 509.5187032262001 1993.3373917099402 504.8041294936583Q1989.348137013174 500.0895557611165 1989.348137013174 492.393114881497L1989.348137013174 492.393114881497Q1989.348137013174 486.3084940813789 1992.9747321920522 481.2312608309493Q1996.601327370931 476.15402758051965 2003.270232949868 473.17216043344195Q2009.9391385288054 470.210441037358 2018.5019327011569 470.210441037358L2018.5019327011569 470.210441037358Q2031.6987096020753 470.210441037358 2039.8182532525639 476.8793466162953Q2047.9579446540465 483.5482521952327 2048.522081681872 495.1533567676433L2048.522081681872 495.1533567676433L2035.3253047809535 495.1533567676433Q2034.9022020100842 488.90755395957507 2030.328662534499 485.1399245237404Q2025.7551230589133 481.3722950879057 2018.058682179294 481.3722950879057L2018.058682179294 481.3722950879057Q2010.9666738294877 481.3722950879057 2006.75579387179 484.4146054879647Q2002.5449139140924 487.45691588802373 2002.5449139140924 492.393114881497L2002.5449139140924 492.393114881497Q2002.5449139140924 496.3219263252818 2005.083530539307 498.86054295049667Q2007.6221471645217 501.39915957571145 2011.4703676043318 502.9102409002441Q2015.3185880441415 504.4414699757705 2022.128527880035 506.31521081819096L2022.128527880035 506.31521081819096Q2030.691322052387 508.6523499334681 2036.050623816729 510.88875029377635Q2041.4300733320651 513.1452984050784 2045.2581460208812 517.6382468766888Q2049.1063664606913 522.1311953482991 2049.2474007176475 529.3843857060558L2049.2474007176475 529.3843857060558Q2049.2474007176475 535.9122570280367 2045.6208055387692 541.1305245354226Q2041.994210359891 546.3689397938025 2035.4058957849288 549.3306591898865Q2028.7974334589726 552.3125263369642 2020.2346392866207 552.3125263369642L2020.2346392866207 552.3125263369642ZM2104.6738637015046 482.3796826375941L2083.9216801779226 482.3796826375941L2083.9216801779226 529.2433514490995Q2083.9216801779226 535.0459037353046 2086.3998535501564 537.4434861035631Q2088.8578791713962 539.8410684718215 2094.9424999715143 539.8410684718215L2094.9424999715143 539.8410684718215L2104.6738637015046 539.8410684718215L2104.6738637015046 551.0029225223693L2092.766542864187 551.0029225223693Q2081.745723070596 551.0029225223693 2076.2453870492973 545.9256892719395Q2070.7249032770046 540.84845602151 2070.7249032770046 529.2433514490995L2070.7249032770046 529.2433514490995L2070.7249032770046 482.3796826375941L2060.429402519189 482.3796826375941L2060.429402519189 471.4998971009592L2070.7249032770046 471.4998971009592L2070.7249032770046 451.4931803641472L2083.9216801779226 451.4931803641472L2083.9216801779226 471.4998971009592L2104.6738637015046 471.4998971009592L2104.6738637015046 482.3796826375941ZM2155.305161948844 552.3125263369642Q2144.1231601473028 552.3125263369642 2135.0566722001067 547.2352930865345Q2125.990184252911 542.1580598361049 2120.8525077495005 532.7893556240026Q2115.694683495096 523.4407991628941 2115.694683495096 511.11037555470784L2115.694683495096 511.11037555470784Q2115.694683495096 498.920986203478 2120.9935420064567 489.5724297423694Q2126.292400517818 480.20372553026715 2135.419331717995 475.20708328381255Q2144.5664106691656 470.210441037358 2155.86929897667 470.210441037358L2155.86929897667 470.210441037358Q2167.1923350351676 470.210441037358 2176.3394139863385 475.20708328381255Q2185.4663451865154 480.20372553026715 2190.7652036978766 489.49183873839434Q2196.064062209238 498.7799519465216 2196.064062209238 511.11037555470784L2196.064062209238 511.11037555470784Q2196.064062209238 523.4407991628941 2190.62416944092 532.7893556240026Q2185.1842766726027 542.1580598361049 2175.8961634644756 547.2352930865345Q2166.608050256348 552.3125263369642 2155.305161948844 552.3125263369642L2155.305161948844 552.3125263369642ZM2155.305161948844 540.7074217645536Q2162.397170298651 540.7074217645536 2168.642973106719 537.3628950995881Q2174.888775914787 534.0385161856162 2178.7168486036035 527.3494628556851Q2182.565069043413 520.6805572767478 2182.565069043413 511.11037555470784L2182.565069043413 511.11037555470784Q2182.565069043413 501.54019383266785 2178.7974396075783 494.8712882537305Q2175.0298101717435 488.1822349237994 2168.925041620632 484.91829926280894Q2162.840420820514 481.65436360181843 2155.7282647197135 481.65436360181843L2155.7282647197135 481.65436360181843Q2148.475074361957 481.65436360181843 2142.45089681482 484.91829926280894Q2136.446867018677 488.1822349237994 2132.820271839799 494.8712882537305Q2129.19367666092 501.54019383266785 2129.19367666092 511.11037555470784L2129.19367666092 511.11037555470784Q2129.19367666092 520.8215915337041 2132.7396808358235 527.5106448636353Q2136.285685010727 534.1795504425727 2142.2494193048824 537.4434861035631Q2148.1930058480443 540.7074217645536 2155.305161948844 540.7074217645536L2155.305161948844 540.7074217645536ZM2270.771922894131 471.4998971009592L2283.9686997950494 471.4998971009592L2283.9686997950494 551.0029225223693L2270.771922894131 551.0029225223693L2270.771922894131 539.2567836930023Q2267.004293458296 545.3414044931203 2260.254796875384 548.7463744110671Q2253.5053002924715 552.1714920800077 2245.3857566419824 552.1714920800077L2245.3857566419824 552.1714920800077Q2236.0976434338554 552.1714920800077 2228.7034188191424 548.3232716401981Q2221.30919420443 544.4750512003883 2217.017723242757 536.7786103207687Q2212.746400032078 529.102317192143 2212.746400032078 518.0814973985516L2212.746400032078 518.0814973985516L2212.746400032078 471.4998971009592L2225.8021426760397 471.4998971009592L2225.8021426760397 516.3286430620938Q2225.8021426760397 528.0747818914608 2231.7457292192016 534.4011757035041Q2237.689315762363 540.7074217645536 2247.984816520179 540.7074217645536L2247.984816520179 540.7074217645536Q2258.5825335429013 540.7074217645536 2264.667154343019 534.1795504425727Q2270.771922894131 527.6516791205917 2270.771922894131 515.180221255449L2270.771922894131 515.180221255449L2270.771922894131 471.4998971009592Z " fill="#000000" transform="matrix(0.38310508994738435,0,0,0.3831050899473843,0,102.63570062967142)"/></g></svg>